<mxfile host="app.diagrams.net" modified="2023-03-14T12:32:39.767Z" agent="5.0 (X11; Linux x86_64) AppleWebKit/537.36 (KHTML, like Gecko) Chrome/111.0.0.0 Safari/537.36" etag="sgUM9GE5Ght8vp-ph4Bj" version="21.0.6" type="github">
  <diagram name="Seite-1" id="8uVaI3S6RuoLiI_9QnlT">
    <mxGraphModel dx="1687" dy="868" grid="1" gridSize="10" guides="1" tooltips="1" connect="1" arrows="1" fold="1" page="1" pageScale="1" pageWidth="827" pageHeight="1169" math="0" shadow="0">
      <root>
        <mxCell id="0" />
        <mxCell id="1" parent="0" />
        <mxCell id="aQsGfXvwJRCkVv1AMBmh-6" style="edgeStyle=orthogonalEdgeStyle;rounded=1;orthogonalLoop=1;jettySize=auto;html=1;exitX=0.5;exitY=1;exitDx=0;exitDy=0;exitPerimeter=0;entryX=0.5;entryY=0;entryDx=0;entryDy=0;strokeWidth=2;strokeColor=#10739E;" parent="1" source="aQsGfXvwJRCkVv1AMBmh-1" target="aQsGfXvwJRCkVv1AMBmh-4" edge="1">
          <mxGeometry relative="1" as="geometry" />
        </mxCell>
        <mxCell id="aQsGfXvwJRCkVv1AMBmh-7" value="git push&lt;span style=&quot;font-size: 16px;&quot;&gt;&lt;br style=&quot;font-size: 16px;&quot;&gt;&lt;/span&gt;" style="edgeLabel;html=1;align=center;verticalAlign=bottom;resizable=0;points=[];fontStyle=1;fontSize=16;" parent="aQsGfXvwJRCkVv1AMBmh-6" vertex="1" connectable="0">
          <mxGeometry x="0.5108" relative="1" as="geometry">
            <mxPoint as="offset" />
          </mxGeometry>
        </mxCell>
        <mxCell id="aQsGfXvwJRCkVv1AMBmh-1" value="" style="sketch=0;aspect=fixed;pointerEvents=1;shadow=0;dashed=0;html=1;strokeColor=#0e8088;labelPosition=center;verticalLabelPosition=bottom;verticalAlign=top;align=center;fillColor=#b0e3e6;shape=mxgraph.azure.laptop" parent="1" vertex="1">
          <mxGeometry x="30" y="40" width="116.67" height="70" as="geometry" />
        </mxCell>
        <mxCell id="aQsGfXvwJRCkVv1AMBmh-4" value="&lt;b&gt;LVGOM01.SOZVERS.AT&lt;br&gt;&lt;/b&gt;" style="rounded=1;whiteSpace=wrap;html=1;verticalAlign=bottom;align=left;horizontal=1;labelPosition=center;verticalLabelPosition=top;strokeWidth=2;" parent="1" vertex="1">
          <mxGeometry x="80" y="250" width="520" height="400" as="geometry" />
        </mxCell>
        <mxCell id="aQsGfXvwJRCkVv1AMBmh-39" value="hooks" style="shape=table;startSize=30;container=1;collapsible=0;childLayout=tableLayout;strokeColor=default;fontSize=16;" parent="1" vertex="1">
          <mxGeometry x="120" y="280" width="440" height="190" as="geometry" />
        </mxCell>
        <mxCell id="aQsGfXvwJRCkVv1AMBmh-56" style="shape=tableRow;horizontal=0;startSize=0;swimlaneHead=0;swimlaneBody=0;strokeColor=inherit;top=0;left=0;bottom=0;right=0;collapsible=0;dropTarget=0;fillColor=none;points=[[0,0.5],[1,0.5]];portConstraint=eastwest;fontSize=16;" parent="aQsGfXvwJRCkVv1AMBmh-39" vertex="1">
          <mxGeometry y="30" width="440" height="40" as="geometry" />
        </mxCell>
        <mxCell id="aQsGfXvwJRCkVv1AMBmh-57" value="pre-receive" style="shape=partialRectangle;html=1;whiteSpace=wrap;connectable=0;strokeColor=inherit;overflow=hidden;fillColor=none;top=0;left=0;bottom=0;right=0;pointerEvents=1;fontSize=16;align=left;" parent="aQsGfXvwJRCkVv1AMBmh-56" vertex="1">
          <mxGeometry width="151" height="40" as="geometry">
            <mxRectangle width="151" height="40" as="alternateBounds" />
          </mxGeometry>
        </mxCell>
        <mxCell id="aQsGfXvwJRCkVv1AMBmh-58" value="IP-Freigabe" style="shape=partialRectangle;html=1;whiteSpace=wrap;connectable=0;strokeColor=inherit;overflow=hidden;fillColor=none;top=0;left=0;bottom=0;right=0;pointerEvents=1;fontSize=16;" parent="aQsGfXvwJRCkVv1AMBmh-56" vertex="1">
          <mxGeometry x="151" width="289" height="40" as="geometry">
            <mxRectangle width="289" height="40" as="alternateBounds" />
          </mxGeometry>
        </mxCell>
        <mxCell id="aQsGfXvwJRCkVv1AMBmh-40" value="" style="shape=tableRow;horizontal=0;startSize=0;swimlaneHead=0;swimlaneBody=0;strokeColor=inherit;top=0;left=0;bottom=0;right=0;collapsible=0;dropTarget=0;fillColor=none;points=[[0,0.5],[1,0.5]];portConstraint=eastwest;fontSize=16;" parent="aQsGfXvwJRCkVv1AMBmh-39" vertex="1">
          <mxGeometry y="70" width="440" height="40" as="geometry" />
        </mxCell>
        <mxCell id="aQsGfXvwJRCkVv1AMBmh-41" value="update" style="shape=partialRectangle;html=1;whiteSpace=wrap;connectable=0;strokeColor=inherit;overflow=hidden;fillColor=none;top=0;left=0;bottom=0;right=0;pointerEvents=1;fontSize=16;align=left;" parent="aQsGfXvwJRCkVv1AMBmh-40" vertex="1">
          <mxGeometry width="151" height="40" as="geometry">
            <mxRectangle width="151" height="40" as="alternateBounds" />
          </mxGeometry>
        </mxCell>
        <mxCell id="aQsGfXvwJRCkVv1AMBmh-42" value="shellcheck" style="shape=partialRectangle;html=1;whiteSpace=wrap;connectable=0;strokeColor=inherit;overflow=hidden;fillColor=none;top=0;left=0;bottom=0;right=0;pointerEvents=1;fontSize=16;" parent="aQsGfXvwJRCkVv1AMBmh-40" vertex="1">
          <mxGeometry x="151" width="289" height="40" as="geometry">
            <mxRectangle width="289" height="40" as="alternateBounds" />
          </mxGeometry>
        </mxCell>
        <mxCell id="aQsGfXvwJRCkVv1AMBmh-44" value="" style="shape=tableRow;horizontal=0;startSize=0;swimlaneHead=0;swimlaneBody=0;strokeColor=inherit;top=0;left=0;bottom=0;right=0;collapsible=0;dropTarget=0;fillColor=none;points=[[0,0.5],[1,0.5]];portConstraint=eastwest;fontSize=16;" parent="aQsGfXvwJRCkVv1AMBmh-39" vertex="1">
          <mxGeometry y="110" width="440" height="40" as="geometry" />
        </mxCell>
        <mxCell id="aQsGfXvwJRCkVv1AMBmh-45" value="post-receive" style="shape=partialRectangle;html=1;whiteSpace=wrap;connectable=0;strokeColor=inherit;overflow=hidden;fillColor=none;top=0;left=0;bottom=0;right=0;pointerEvents=1;fontSize=16;align=left;" parent="aQsGfXvwJRCkVv1AMBmh-44" vertex="1">
          <mxGeometry width="151" height="40" as="geometry">
            <mxRectangle width="151" height="40" as="alternateBounds" />
          </mxGeometry>
        </mxCell>
        <mxCell id="aQsGfXvwJRCkVv1AMBmh-46" value="OpconMonFetchRepo&lt;br&gt;&amp;nbsp;&amp;nbsp;&lt;font style=&quot;font-size: 13px;&quot;&gt;(nur bestimmte repos)&lt;/font&gt;" style="shape=partialRectangle;html=1;whiteSpace=wrap;connectable=0;strokeColor=inherit;overflow=hidden;fillColor=none;top=0;left=0;bottom=0;right=0;pointerEvents=1;fontSize=16;" parent="aQsGfXvwJRCkVv1AMBmh-44" vertex="1">
          <mxGeometry x="151" width="289" height="40" as="geometry">
            <mxRectangle width="289" height="40" as="alternateBounds" />
          </mxGeometry>
        </mxCell>
        <mxCell id="aQsGfXvwJRCkVv1AMBmh-60" style="shape=tableRow;horizontal=0;startSize=0;swimlaneHead=0;swimlaneBody=0;strokeColor=inherit;top=0;left=0;bottom=0;right=0;collapsible=0;dropTarget=0;fillColor=none;points=[[0,0.5],[1,0.5]];portConstraint=eastwest;fontSize=16;" parent="aQsGfXvwJRCkVv1AMBmh-39" vertex="1">
          <mxGeometry y="150" width="440" height="40" as="geometry" />
        </mxCell>
        <mxCell id="aQsGfXvwJRCkVv1AMBmh-61" value="post-update" style="shape=partialRectangle;html=1;whiteSpace=wrap;connectable=0;strokeColor=inherit;overflow=hidden;fillColor=none;top=0;left=0;bottom=0;right=0;pointerEvents=1;fontSize=16;align=left;" parent="aQsGfXvwJRCkVv1AMBmh-60" vertex="1">
          <mxGeometry width="151" height="40" as="geometry">
            <mxRectangle width="151" height="40" as="alternateBounds" />
          </mxGeometry>
        </mxCell>
        <mxCell id="aQsGfXvwJRCkVv1AMBmh-62" value="chat-message, update-serverinfo" style="shape=partialRectangle;html=1;whiteSpace=wrap;connectable=0;strokeColor=inherit;overflow=hidden;fillColor=none;top=0;left=0;bottom=0;right=0;pointerEvents=1;fontSize=16;" parent="aQsGfXvwJRCkVv1AMBmh-60" vertex="1">
          <mxGeometry x="151" width="289" height="40" as="geometry">
            <mxRectangle width="289" height="40" as="alternateBounds" />
          </mxGeometry>
        </mxCell>
        <mxCell id="aQsGfXvwJRCkVv1AMBmh-64" value="" style="shape=image;imageAspect=0;aspect=fixed;verticalLabelPosition=bottom;verticalAlign=top;image=data:image/png,iVBORw0KGgoAAAANSUhEUgAAAPkAAADKCAMAAABQfxahAAABd1BMVEX////w1rfl5eXm5ubk5OQ0UGAjHh/z8/Pj4+P39/fu7u4AAADr6+vx8fH6+vrt7e1Jc4zSODOCssbc2dhwbGz35s5tbW8zTl3a19YjHh4iGhkcFhf43b0fGhwJAAAaFBXzPToSCQsgFRLvPTkAAAf/7tNLeJIAGhwWHR7848RFbIMoLzaJiIj/89lAZHkkISN+fX3Hx8eurq7aOTU7W266ublfWVScmZdBPTzkzrQzMDEsO0b+PzwwRFEmKC0qOUMVAABWUlG4p5JmYmJIRUSQhXgAABM1LSnVw61hWVIAABDEspvk1sN8dGylmImFhYV4JyZqJiW5s6sUGCKemZLv49PRxbZCRUlWW2D//+qKe2ubjX1KQz53bWS5ppCspJtKKB8AEiW4nJgfAADItbFuTUpNT1Q+LC5JKyZgLi22MjA3HR2bLCrAMS6wnpqsMS54MDBjOjKOMjHLmZXx19QtAABbcXyQLCp7nq1XaXFpiJV9pbWZdHNMWeiTAAAgAElEQVR4nN19jWPaxpYvRlh8jIAmEBskJFlY/iDgALIxGMfYGNz4I3aSuq2zjbO5u+9u3t62eXnbt9vbm+4f/86ZkUAS4lskeW/aRA6DxuenOXO+5pxRIABN4LhgFK7xIBeMwzUR5DgOO+ASSsA1Bh1huEahQ8COEHTY7wzDF5JeHQNDCsmwIFRr9Ur6vthsNJuNTuWFUU3SO2YcciYq6Z2fE3nUKHUlQhRNVWUemyypmkJItlPPhIX/T5HHktVSAzBLvEeTVYU0S5HPjZwLhSJ4azwSCsVwTLjSnpDZEYMrHRM66JhwjdAx4UrHhA+S9g73kIFYNU1IH7Wk6QSbovc/kzXSqAXikw45H5UhfGAcvQ2u9Da4Ym+CM59LEq70NrjG7B2C2RG33SmYc+AcUohmSmWi9iZYJfp95d13tN1ULm77j0QiLWOiIeenkrIKvbXPKkEnqwS5kMUqdEzoCNqZzOK+aIgLcvY7rSEDtTbR5B5uTb/+8YedjX579Pz87I5o7MnIpFkdP6QPVHohH75IrDGt5RV0jOm+0xyy1rRNN+A+ewRgnW1jY+f592miywx7OimMHtIPKgPBYJCuhWQoGGKLJGguErNDCAXZIoEvsOUVDNJfxkEHHRM64qyDrbtIf0guUG0SGVcwQ68SwP3Iq8Hc/3Bzy76ladX40CH9ojKQgBZLJpNRuIbhGodrFK5J7EiaHXG4hs2OmL0jZnYM3MmGDGS6gFsizUotXlHhh/QP3ritmf+xw7CTemDIkL5RyTgeng/jiCDTF6EgWwtBsyMWNB81dDAmM5+oAFfzUZv6wpwDHDIQXiESr5G2EYlw1bZE7n/cGYBbyLG2BH8KBcC+T5DnyQr+8oEh/aOSCoHF6HMhVof507RKhktFUiDjtO93HBOeW/JquY0fizpAV9rC59Dn1tPsr4Xe0zQ1petp2paX9TRNTWl1xKtlAsu6komkIhmjqZL28z7uQsETtdkK1wQX+3uBcwzpL5XBQBxaOBqNhj2ucbhGvb4wtiMarhBZJp0q4q6/1yTyfV+gj4RNoZ9S6G32O4b9rjmp7Mt29yLpPbD+ImFS01okA3NgrbtIMF4VNV4rG1wqlap3uqqq/bgxmsldLP+OUIYP9If0ncqF6PNwHaQU6URSqUitk75T9fueSJ8ANoVOZ11Jhxerz0M+P81YhYA5UocJz7zopNsqSVucPpbPXdBJKd6bc7+pDFhs77lAZlpBAQAu8bjCq2loLdKZcsJpY2KO1KIOYvyjMhqYVmoOmE5uqZmsA/ByBjjd6ADwO9LZmQE4QG9rCD02k2wfS+Ui9HnGAl5H4CvkYjbgAL0FJo3aDQQ/hz73wToKdyVZ7QFPN8s/TLvETdyPNp5fUjs2ZlngPttw4yxiwdMiFsyOAYs4ViU8MUCZ1eiMd4mlzqbDnaN2PNVtJBJLCj5TKaDdPouvFhrhBbUlrcKluOr71687nQa53phpxqn7svNPZ7DUtXRgNl9tFJXWIqFj+qMpQ4RXYimjI6uSpKqy+sPAjLPpHG3PwBeev2jfvS9R5yW1GH3ua0yGi1Y0ud0R0dWUVY1Xr3fcwBH2Pz16Ppr9H+18TzRJkjTqrb9YWExmdITLCmR5RrjomHClY3JC2FCzABlEskKa+/WmLG84DVaY8I0fzm4JId2D4dOe26B2jNWIv1Rac87Wgj9RzWibEayRjlENBbmKRr7bsE85AN95p9OYnEQOhiPfuaORWZ1FsRSD85PKgBl7tS+S+TRlLFqm3KmKlVQIpDs4p4p+s+EE/qhDH44sy9pPQyc9t0POzguFg9N9gjFZtRP3j8oF7DRw8RYLJHUy6KpU65VOR1VX7MgBeEPDYNxlo9skb0ZIuXPWVzi/16liWxRyGx9FLD4KOvgoMp6PYhUFJ1MxqEuepnaMql5s9IGDcQIWqUyuzw9yudxwZndM/xnwCDF8ozLS53abPo/MpSkFZGOpDJ5Kiplv0GRA3p/ZRxsAQ7sfIdo8WuEN4dU0UucLlaP1eXAmTVnScH8oY3poYL/Bf7Ka3uiD2HgOwPenwo3QL1SeRP2iki4Fny0Z6lllmIcGqBE4cPuKzXrbudbU+2mtuaWlg29h3AVYMiFzLSQnUQnW8go51h1c4wFw0XitEqH2+orJ7GlVf2eb4ke3sjbZ6na03LWqGII/VNp0IXosAUEQwAxIgBkggLZPoE0iCAGzIwEfxKAjbHYksYPDDrgmOfPOZB3km5JJZTqIG+cc/nQk/Z0NwnNCTqfldWxXutoJ+EIlXGNwTdA76XMJOi28hGXhBd36IjRoNDImS1bAVu1wqQpb4uz/tqSf2xGQ7vS8jpOuSV1/qFyEPo91VF6rRyiv0yUOf6ffS2UH1G9PZwG+VCjKJLEofT5E8ofccZ6hyiTZlnilxq2k2X/s/6Z64eDuqcMyS5Rlcm9VtGV8oNIRjaK7btGo6dZHTe8dPrE6WEDA1ZGwOqw7A89kkMCZjqXPqJRraWej1/XBzej+wi3yTO5GI7W4H1SaHbGEudPgHc/1CuV4x3Ph3ww5Z1D5Zsq4dLqsX40EljuQXchd/yw0USTm/vkShfv8VC5ip4EhF+oms9OlvtJRR/hjaMw++oG4Hs2N41+PNq6poLjStbrguz4fiEYNhGzdMfxI/2n21h1Ffin05Dr94bX67QhZjo77zp3TpMs53BgaiUOheE60F4IPVDrnPIwNo/Cua9x+HfqF3geJrsRfcqZKY5I93dbaw5cxyxU4I+eOT+16D/t/ZB8QrZLwg0p7R8CxFtzPpRfPHbo/az1qlO0k2OnJdvy7rY8QcAz5c7JvZ4tCS+mtDxqv27mn6wGQ+0KlFXX2c6cB9TkgtyQ7/dPWR7jgZoJIh5zbvpN7S3oPq0D7b+ikXyLyz5I5MDaGP/A0YyuAPJW2WXBgwpERSstE/iMhNq81d6r3rT4WwKMW7+1kcz7BdqNtp2HsdtxkG3lRsF4J+qcrrzuWw9LWR6nrAoN+od3alvoBUS967I/pM4W22mTI/aDS/sEEsj00KDWt3R6b1Kwj8nqjLEtSufmeTv1Ibu9jlWUbu++rlldTuLp5c3bdVHn9p0JTq4yT7ZNRaduH9M0/NxRebigyn6VJnHIbsL9WrkchL9CMqMK1an9A54S/ZL23RNc0VeZlco7Ik58vc2DAOgqOtI7qGJLBQClL31bv0D1vDQ+v7t+2r8/eXb271nnV9oAKF6pKxX3uTKdBWv32PJc77iOfj0q7Pu9txwlJge66CbbtOHMjj34BOoTedpxjIw/v/E8WTCaXFysrDYwVq8DxTTJ8xm8xsV2nIXWH1w6TzgTjwR3RddJAfsjdKS/CflBp72AcP9QLCk3oBQXaGHHW5O8wi3PnOY0td0C4D3VLQX/1tlAcdhzONZPvuaubK5hv/KmtlPygMhzxP3MghTj0tJnTurHzXoVVn+6Q4aZM7s0lzCk0cuM0cQtNWb5lt1k35/ZJfVH6nG3H2aIdnHe0w2Mjj45Zp9u9O3TzdwNtMxFYfyWtNYYb7rnC+Q20U7d/tnQOK7/hNOffk5ofVHrGZHrZ73TMUQn1vQ4qJcw7mzIvNXDftN69f/F8AwxyjZc6afVyZMSR5rsOfnpDeP3MYdQ2Efn8VDq3G+ePvcYiQdxlwOyIjSaRJI28KYD/ycvdJj/GQfduhQuwDRymQJnUuLmpdMdefdHnVcJL7Z1HG2/IM7rXf5Z7dCejktNnCrYudVWnwL8lmc+SOTD1mEKN8Mo7WN/lg4NLXtfB+Mi90Wgi/yxzDhpNlnly1Yeuk8iX3WmIDOEj7jtCmf3RQe6Nrl2damB8nxOdkPb5TFO+lAOtLuv9mwnhgnNT6eZ22jvCCxqTP81MJ0T+HFMEQE3f5HJX4IAtXV0dFGbDvcSSP2XJmvUr0vSDSo9MQM6tKUfoC85LX1Qt5IUumm2FhivUMgP0N5g7a66VU9L1g8pF7DRkkNsx96twd5mjkzTbnoKtFd5qwPBUt4Ga6/hB5ajMAVgbjrUwaQZKnEm4HMw5da8LjeklW86VLnUAIpIw5G/RhJufSleejGDuusXgB2rRm9txid52HG7kwTUMX4ibHb2NPOyIC0KC8NpPiDz3lgUdD6bfM3UnShb2JYkNBovHiPlApRAOsDsFuo86oNU8tuOGZJr1d/hiHVUGEw4Z835WqTaAvCFr3zPkKqn6QaVzH9IfS0YwFJ6cY3rEQXdG5O4UUVRs5kbFAarzz1Cj6BHnGVv9x4Gvpq7sIMGzmS5LV2fOhNDc+YUk3bIfb3QSDflApStPBgNy5q5bFLfjMFJHd92i/f26aNzsCA/rCHQl0Gszq2/wyou2Gc8VrvZ1STfFJHjs3YAvVNLtRtYRc9UohmbNHI8aMOmdjSG4xjcQYjbcpw2iqsRy1wptpeIPlQupUYyrYGl/N/OkA3IWoc4VDt6UsdRtv+e3H1wqhk9Ujt9pmL76T6iDzaXZzPTpHkLuWtNvDpYOzs8uLjVZvbw3R8J8wSudZHyi0mG9hn1qgZZsg54775KpMiRAktMkX01V9cvr84KJ+/ouBw9FivpFpZ1g32oUMS1M1m/QS8kVznSJPJ8mHSh3QTR69ESjc3VgReHOLkGvFVpq+yuvUazTKGTz5urqqqHzWntn/KQf2PbU3t28ubk67/l3uYM3txou/nOi1L94jeKQGL75NAMlQg8I0XVd5tXsJFU7udvr01yBBeNsQblcrnB+domByALmAcIyn6ZGcTSVjhpFqvvisXiM6jy4Up0X8+gIs46YZ0c4USOadUBK89HGKOQF01a9IrpWfntzCsINFwk0sP2vTq9lTP+X0ZIptGQt4UnMjFRad1qy3XvXbSDfakz1X7hiHiLCirWGI7eM9NwpkWRVhwWu3942sQFackkT5WUJjddToqZjEV+pXEyNYupFmRaZ/TC6Ro120u2TgwaxDlyRsZHzJbMk5BkKgdy+RMy8qEXtNHjnVQbH51WaT9McM5iMV2kIenSpOXD70kGbWqyF03vb2UK8iVwlb+kXD8BvMX+Xj1RS5HTXDVxWth0nmNtx4P3S/TqzI265xXCNWR10I8/sCJsd+IXAX2Se1q+MmPQCOmam3ZbLnZ+1QZNrKpvzHNEIuWaWAcg3tRNlv8tfKgX/ahr6XtC1ymsVF3J33B354UC28uVAvl/dnL3tNp41mue5s5srS7cdXPKkaiNmwTUN82pKTCKQdlzIXekTzMoh5b5Cp6eqFPDsjf6WE9hvctlOzOeuURwYc2iNIv1lGWIJdxtarz2H3BW5PB0VmsZVbgxBPi+Vve24JOes/uttxw2t/rPuHKj+i99LvPb9hiPKUmiWPYzZ3LVOuqdLXvuK9CZMoKZnbgX9p5Kh96iHmj2qGQmAsy51nQs9d+PM+bM+bqiyTtpnaLb2m9V5SvAYJY/z4Xyg0s8aRduBP8juz50LveeBu/j5Vuodk/ft7e2/XMK1ZUIH8Sa3FnuGkO/IYdK1M9dCB0PVa5ftoGU7Og4zq1TdEvhvNR73zRd6etJYPpqg+s9xdGFT4m9d9deFa533isLnri/BkqH2m6TC3F9YQQngdfBPPU9D9IHKkG9ZYTYvKEQ31Ml3Llum0PROHskVrs7aDWzdt31NvrR0C0umKvRMc9+zwsZrNQ9N6a0vLO6DL8QrqtR2m3EHZX1I2nfOFG02IV/YB7dFqSd7Q/pN5YJOQ6ST/qP7nIVzXX87YXwOk2Uw0BFc3OlJvtQoOnf48Jph+SMu6FdgkE8Uo4JFTtNI1UbMQYyPVA71WKztOGry232BpNsXiNp8AexALyhQ6zlsrpnUvdT6APBzjQl6XmtYQ/pMpQ81iiEPrRbg7lBN37knHaFr95PMOGg6sSXirDdTSStr2U8qF6PPo2f0lASenTLhWNmFM6I2R2fP5A7ocRX5483lPOZN69XYAvX5pHEeD+fQHecR4v/6P6xwnD54fFDhhsjOPD8X7sKZisGo/NE332zu5dlBoDHfqQSVF4vF2K4b/MAidDEWoUuaHTGPjpjZwXb4zC/QjkTgr39h0STKqq8HoedOdVlvXnljz+VOZWbT7W1+04feCcd9pTI6rkZxwnhusB/PjQv/xsJq+fxRnh5juTNwdlLu/FaTwVQbxJ4rvCmzc3755ceI3IKu/U9ueI3i9FT6r8+FWIkeVJvNt/Y2N5/k0QqnJ0DaQWIE4lqTVdJwuKfw49W+dfxztpzPy/ZZl5S/Jv2i0pcaRWcMP179d2LhtrHq+3ePdmxVOTc//fTTWaeBZRq31zcHOXrU7dLV2Vv7ad+o0PJPbLMun/yrT1Q6axT9aNFwhzK6iRuJXmbzRcjKzfn5EhqnuStN11QNPBQKEDyUb+8vLu7xHHPV5rLx29s48Y/pKE/ELAvhJ3yjFVtg5HOZvPovGDboBouYtXAj0UdslRIFfLDb5sXb6xvdjo9F2SXzMeCx12X8oby19fJvAF08fmJCFyn0Kjd/jaLvOw2JSBsnPJtf/cbeNg+BZq2eWSGs6fBwtregbZct4JKuUvdUJ/dnVwdtGGTr3z+sP3261uT54vIeG4faNLIY/zpqFB3OoUHXaL74eNOB/PFeWeTVFRy6WjOMF22J33619nT9599+2dpm/H59+vbivn0N7mmhcCCr/Lb88ena2vr62octXlxdXmUcf4jMQwxuPio9ahRtyjBsaUf7dUCNOjoS8dco2cT8shP3k+XV5eWiyJMK274Dmgj/y9O19bW1p093f92m4LWLpQLbTi2gzbr1ap3iXl9fbyLy5dW93rrRKtE5qHR3+FCjyCY8655wihvaUVlUmgYXwzGqZPvXp+u0rT1d+/AKsauXb6/wHKncTwQE24c1AL67++DBg92X2+IR3L+6jNO+Wczy6r4/NYp+7TRUV5gqc0z4471VhhvbsSiRZj0jcMmStgXQ1nHW4f+1p4CdSfjbVqus8b+8pBP+gDZgimyRDYDQQbmp6UXtNIQmzau0NCXHJf6XSle42LJPuAM3tqIoKaRbqr2Wth7AlJrQdmHiP2xt0fUOQg9EwFPK6Kz7wcctC/kq6IsneV4rzUblkOzPYbtuPefW0y1mHbHUM9NWPdocZHN7Wy2KWUlTJH5rbc0EThvM8cdtwL7166+/bfFbu09Rupl9uz3kMCAiJ7XALFQObjfaaxTH50+HPEIhCV5lBpdNh3vhtrDj3K6t2YA/2EWef7q1vf50fffXre2XL//3xwdrPeR80XY/SMpMcBYqF7HTgGdFAaczW4vhXvXG3cPuQv4AgO9+BOTACbvb/NbLjz/v9ub8F9mGvJWVny1An3OzVf/dSw5OH1jeg9izLuTrP/9N3kI2h093/7L9Epi9txp2/2ZHXsxqpeQiahSDjuq/oEswDlT/BWlMV4ZFXrY4fRibO6CLW+tObl9f//nvYNb9TLl7+6VdCADy4/6tIg2+z0Kls0Yx2btzjthr8j9kPnu8OTFuivyBQ8Ih9rW1V1svd3dBf2+/XLf3bIuHvTuPRF6ZjcpF1Cgm/1uzfElY4BMAX14ugz53IkeIr7Z/efkbD2rt5VP7x1ui3SbAQza+lhpF4f+ADSMeskmfDHkRbDgv5GC9gdJTs69++/hhFxuzZPqDFrM0a+QrqVHk/vO/QKWJbJlPBHz5CKbVjXz3Ay8pGmnXjQ7ZRk/u1auXf//1wweHgMtSZve9RnFmL/U/QJ+LyxT53mTQRdnN7bu/baldo1QNplKcoWA4ahsbGHXUbGdtFZg9PLsvPVS2c1NU/zn0xV+B3bOtzSkWemvr53Un8JdbcjGTwpaBSylLeFVc3VtV89lsq3fboUhqyVmpXEiN4n/Jlox7PBny4+2/2dXa7u4v27zcoLiFQAwuMYO8fojt97Io9rRamSdfWY0iWnEiM2UmQ34EGt0G/OdftvPgiqRDqRSMW0XsdfKPh6yVxbyl1vJqZxE1ig6PZSCBcKgvQFMPaWL3NAu9vPWxP+HA6Se/fzqhb3YIBJrkDqgrkd9N5H+WRZPfj0XyXXIOKj09lgGtNpX/R4/WYOy+NyG7y3/ZNXH//Zftk+IfDx++zssyIi8THoYtKRbyh0d5c0zQaZHg7FQupEYxTix2n3ChA7s/QIX9AUw2+YQxtpTVKsCnqRXkzRXlkwn804ml1kSpHf6aahRpnCcNiq08hYhbLm+/+vjrSwzCidofFkT0QAOsdXrIW9aUH4mKMf7ErFFUDq1RNCN1M8T2wpjTzdh96CwfOv55KALqbRrH+dNi6ztJ7QQTFnLz499PLNHe4klyLio9I5Dmc5my+q8fz42idF/dHCHiwJ1zsEM5C0YA/BF7wB/+cYKeGEPetpCrZesOYPY5qVxAjWJQABmXLW4Ot2XAy3KxQ1EUi8XsSR84CDkJVjqoNbDNG2bHat4y4Q5FWqT4uU9DHHd2BeYC8fkRIg6Ru6Cvri6XTz7ZgD/884RXMvEaAbfkWd5kg57V3sqS8JxULqRGEU9Oyu8Nt2UOEbn7qRTF5kNHg0l/EaTI1TL94FCybllFZp+bzEG6PWT7mOo/9/4ssDvTa8OQo2Hv7DsS8787kf95IvORaK0WiJImE/eH/QGIIcxN5SJqFIHds+Xhwv2IInd+JvKOVY7tvajUEUOIGa9ST7yhZA8vIF/Rh2yRAEj3/OOhwv0oX3TPOSz9bOuTE/kfJ3ITx89Q5Ms98QZfVl8Pr1GcI1tkNmVovyYqGlvo3sL9KH/onnNAzmdPmk7sYJtXUbwT+PgPpR+UKIJVn5ifygErgHH8XPlWCTBmxNXhwp2Gpd27TTQBpPmHDfmnE7UTiQXqBNZBUex9dZXniRCZn8qFZA4IxNTonsCXxUHkILUY9oZt3stZUk0FKsrDh//oizf4plaJmdEvAYgDcmLCV1OjmJWz4nDk5dVB5MurxyLuNok27L+rYM0k7o5BzveDMSjfqux3RTP1t81nebGxUqNZLjPUKAYnqVEc7dw6cmkDFZWZ7t4izhM5tGOaLCieZH/vWTMkEzl53fdU8AmJciuB6bmR+jPMIpLxlXWkkQpMTeVAxq8PWd6coTAR5428tTqg1UxUh3Te+Xz+H38wxaZWQMD9I2/fVOIVPDPK+DczVU6iOVQSWPlzZ3n7oCk5KuI2hwn31pA5R+ww7xS70vz0J066Vjn5dJK1fUHkSTxeUlkGMS+TbqXSJFn4IfI11ChyIOJE3GXyFu6toyFzTtshwy7nT7qfnmFSd7GvynHK5cZ/K2ZmpErKuNuAlVH4tjkfahSDZvVfb85ZPbV5q/3lcTGXSDWfZrwr8cVB5KsMgpdst7cjquMQPMsU7om31UPMBpNVEzbp0MNVoKUUzI6LTUmle84da2HW6r80iLhBn2WVLtjV/Mg5B8dt9aiXHYft6LjYKpezophnyY/4UBTSNuI9erFiQl0JfA01inWFCXc3n4viIdhwx445R6SHh8fFYrEsiqIkwV+iIykyi4Cztg9AltfDAUcry8yY/+I1iiDiqHB3zyfybisrf7O5CUx9dHh83CrzIm1ZfuJG2pmAu+GpbDXhc9QojuGjCGGOqlutFdnKPT6m8ytms1k2mXiCub2pkjQAWMIOHt8ZasGNVysrNRati+MBXbH5uN0HCQc3mMhdau2ozKa2N8WyqimY/8p3O5WSraXbdxphp02IeWjA/lK7VK+XCACPMNy1LiG9hxDAl6AkpqSS87/yPpgA5EUX8iNY5TTSaIP8bKVu1ISka9HSFo3U6h1QEat7jx8/PhQx7Q9aByzaFP6SVIOQku3rdY0xw3xabX6fP9yV6JaqTa3tyTh32SxIaF4hzU7dmrthLZaK1Ej+Ca0JAAOGvkwOBIh0hwQboNOS9m9HCMsk/iyZA6HhdqGwotLtBhvyb57sPXnyGD56cqy4JbNnS2ZSVcICepj2Jz+jn0oyySQD1Wclt5RDa2ZKKietUZzYF4COwAuNhmVsyFefWJUNe9TyngR5RjORfwNGDaGWSkkDV419IRGJRBK9r+M7f6rJqaicqkZxUv8PfZbHTlNmdfnJY5ql/ORkZULkkbKJfBNEIs2LCWSIUk/hD0aeFQfsGwx9CRe6MM9JOrRn7hi+YZoyDtm+iomBT57s5Z9NglxIpbgmRb75ZK9lIU8QEHH4XAzDqNWqsbiVKg8mhFZJfvkaRfTWllE0DRqn4G+RCZELd/m9x08wk7KYtfR42RTurpbMkKy6n5yzRnH+2F48Y/qpno4JPynySFs9YhmFx1lTrQXSWjcS9fh2pCvL94HpI5C9L/hTo4gn3Q53ybIkNSHyimYG4EChy036cV1pRZg0CrO6CNYikYoq3375GkUOzdfDIcj3WmTQ8B5sXCqVKlnIMS6t0o8NRckAPUKljPJN7NSrtFYqkwJbRvU7c2D6fRuOU4YjXy72Te8RTaDIj/vICaU8RUgG6AjHhEymWquBoDOAihgiR6748jWKQOnAVorVDidS6IPIMyby6uBige/WNbUzT9ViYORzmXh/Fh3m/FDkWmdC5HXFSpMQLSeNI4qR4vC49jC+Ho59N5pBmaC9EKajchE1inQredNLq+EE0gNxJkKuWaEoHsvTgBLQXlrdzJC0Gv1npCGjhz4VlSMzB2bMwzCRe8/5ar48AXKw4WDOLeRYwN0JRMCiJVopkhps+GqICDdvjeL8uTcjkS+LZIyf1kdubh7v8Vnw0CMUoVrpIe8/glBaU9vRhdcojs+3SiDyoXuKZWaJjkduWMiXwXyVn1GgitTOVKs1ow6tBH+q9FM8qac2LZWLOA0xcSeNQj6JWkPkNWIhxziWDpOcAbUtoSZXFBrNUbulGnICLzNLx8+dhpne/YAvBxb3NoekRxVpJcYEyGEmrVtgoWulepsAcFVVMU5FunWjGuFgyrmaLLmOSZzhDRVzZvyabnEC3GU+3zryBL58PIlwj6HMJlbpynVoKr4AAATtSURBVDFGojVNU4jUfr3SaWu8XAuCgw4ivlrHWnelE50z45c+l7nzp8GxoJFyb+xH0gTCPQ7Igz3kaMoAm3cMLoBHNwdWwB0n+VZRUmikEnq+ktMQozXzhZCe2MFPjY1FHgbkoUtzA3kVnDUQ7qH+78rCUtc04HsJGaFR9a1Gcd46iXjFPJ45KxYHsecn8FnACUlFsiJuSLRYmNqM35m/K1Gt1yuvu912pW5Qc9aPag4/3s0YN3qnoohFt6ATJ7Dco4j8vdTfgNEI3fbo/y584RB+URA4P+pY/HizHKuHCtTS1kk47nkvquNDcRR5mj48dtzWStJx5Jzvb5bzL8cuwcW5umoyvXO9F6XmWOSU2yuarBHprmx6agPEfCU1ih5jxgIGb2Hni0fWPttxdnxACpGnSkq3VI3EKyrzzheK3I+3hjr5qNpkuR3ZrCi2DunUH4oTiDg0SuukEqQ+G0/Tm2fi9kkrcs0HNvAO1tnrm4VAtW0JuyzujReLxewE9quJPGJa5SnbkNamoY9Uzld57y01sSPTE3Y499ksP4H9isiNPvIq5xzSZyr92mlwIweuqzftLyGQx1txkT5yDiy2muAa8jOdhjjH+7XNF2kIsUypy5wsBZ4AsaW5eDdc4DWygshBu2l1IeQa0ue3gI89VSU2zBcYel6J9YVwOMplDMOoG/j2tdo45Bxl8w5FXtLUTmDSvcHZqJzvJB1v/8+mgqhgScQMBY/BGdOYm7ofStG5p8vDa0jfTtJZQLXAgPKlJ/7ejUMep8jvg1aUTViwPp//xKyBdRdxDxkJN6Txm2thirxJkSfLdC91+JA+nJjljtBZEUhHCG9gO26qoF84imktYxc6Gu4Z0sLlngo2ZK0UHTXk3FQGzOcy58l49nhuxGPIFOG1se4aRa7TcDoId6kbDo0a8kvXKA7T5+4hszJL+RnV6PomDPkLjZfCn0Gfz38CZmhAnzuHBCTEIwHAjTxlIk/h9yPcyCHnPQHTpx3FMS1qxcdHNdDkEYVUETiH3lpkoST5edKtNQcegjiI6ZrpMcgxX0QjmVCoWurii7BHDzn3SbefQ59DRzityvIY5KDWYrrUbSjU4MfXwy5anw/NFhkQjJPlYXgVFMap4zkaOai1UFuSWb0KaSbGDDknlfZTzM13Bw+eDz7Q4T4fPOk4HzzpOaTCjw1D4q64ikmyCukaYGKPG3IuKulvHO4FzZJv5e1YxUBDj9tpYdpMfrZiBNlSntBX+2I1ioEJ9HkCS7tIaDTyCOaL8CQTT0w05EJrFN1jTvqGisEhgwLhR4ekwsxJA+TcZEPO+YaKhPlaj8nf94G3cILA4Z0D1X+c+VaSgSFRuqv7o3BnLCfNSE425FxU+lKj6PEmGq8hq6jSax75jCgFGO5USGjKwBmTDvmlaxQn0efYQWjVWaNiuDIo4jQLIiJEavU2kXBNTDzkYmsUPcYc+8YpzyEr9GUlMtZ1ZCuVeq2WScbjsUgmUzWM+ot02axkAcd84iHnoPJzWTI4ZJX0Q7Gqxmp5WFNwg9iMUpPKFEPOY8nQXt/fLOc5ZCwNGNWB1xXYm6yQeniKIWen0q/MgUmVb8rolDEFQFUlOWvuQ/D4tgLkAWCCZj0aHrJ58f/GexRHDAkLu1qrVyr7jWKr1Sq3isVmo9upVEp1w6jGZxpyNuT/F50S1sfrcT+8AAAAAElFTkSuQmCC;" parent="1" vertex="1">
          <mxGeometry x="130" y="510" width="129.42" height="105" as="geometry" />
        </mxCell>
        <mxCell id="lNjX-8t4JI7WddjIo-AH-1" value="Jenkinsfile" style="shape=step;perimeter=stepPerimeter;whiteSpace=wrap;html=1;fixedSize=1;" vertex="1" parent="1">
          <mxGeometry x="240" y="550" width="150" height="65" as="geometry" />
        </mxCell>
        <mxCell id="lNjX-8t4JI7WddjIo-AH-9" style="edgeStyle=orthogonalEdgeStyle;rounded=1;orthogonalLoop=1;jettySize=auto;html=1;entryX=0;entryY=0.559;entryDx=0;entryDy=0;entryPerimeter=0;fillColor=#b1ddf0;strokeColor=#10739e;strokeWidth=2;exitX=1;exitY=0.5;exitDx=0;exitDy=0;" edge="1" parent="1" source="lNjX-8t4JI7WddjIo-AH-2" target="lNjX-8t4JI7WddjIo-AH-8">
          <mxGeometry relative="1" as="geometry" />
        </mxCell>
        <mxCell id="lNjX-8t4JI7WddjIo-AH-2" value="git_pull_deploy" style="shape=step;perimeter=stepPerimeter;whiteSpace=wrap;html=1;fixedSize=1;" vertex="1" parent="1">
          <mxGeometry x="380" y="550" width="140" height="65" as="geometry" />
        </mxCell>
        <mxCell id="lNjX-8t4JI7WddjIo-AH-3" value="GRAPE CHAT" style="shape=image;imageAspect=0;aspect=fixed;verticalLabelPosition=top;verticalAlign=bottom;image=data:image/png,iVBORw0KGgoAAAANSUhEUgAAApoAAAKaCAYAAACeDPn/AAAAAXNSR0IArs4c6QAAQABJREFUeAHsnQd8VMUTx4cUShICaQQIvYTee+9Niii9CIjSpUiVJr0JIqCCioiKXREQVECk9947hN5CEiChp/x3Hv9gAil3r9y98ls/+XD37u3uzHfXu3m7szNpgnJXiyMUEAABEAABEAABEAABEFCZgIvK7aE5EAABEAABEAABEAABEJAIwNDERAABEAABEAABEAABENCEAAxNTbCiURAAARAAARAAARAAARiamAMgAAIgAAIgAAIgAAKaEIChqQlWNAoCIAACIAACIAACIABDE3MABEAABEAABEAABEBAEwIwNDXBikZBAARAAARAAARAAARgaGIOgAAIgAAIgAAIgAAIaEIAhqYmWNEoCIAACIAACIAACIAADE3MARAAARAAARAAARAAAU0IwNDUBCsaBQEQAAEQAAEQAAEQgKGJOQACIAACIAACIAACIKAJARiammBFoyAAAiAAAiAAAiAAAjA0MQdAAARAAARAAARAAAQ0IQBDUxOsaBQEQAAEQAAEQAAEQACGJuYACIAACIAACIAACICAJgRgaGqCFY2CAAiAAAiAAAiAAAjA0MQcAAEQAAEQAAEQAAEQ0IQADE1NsKJREAABEAABEAABEAABGJqYAyAAAiAAAiAAAiAAApoQgKGpCVY0CgIgAAIgAAIgAAIgAEMTcwAEQAAEQAAEQAAEQEATAjA0NcGKRkEABEAABEAABEAABGBoYg6AAAiAAAiAAAiAAAhoQgCGpiZY0SgIgAAIgAAIgAAIgAAMTcwBEAABEAABEAABEAABTQjA0NQEKxoFARAAARAAARAAARCAoYk5AAIgAAIgAAIgAAIgoAkBGJqaYEWjIAACIAACIAACIAACMDQxB0AABEAABEAABEAABDQhAENTE6xoFARAAARAAARAAARAAIYm5gAIgAAIgAAIgAAIgIAmBGBoaoIVjYIACIAACIAACIAACMDQxBwAARAAARAAARAAARDQhAAMTU2wolEQAAEQAAEQAAEQAAEYmpgDIAACIAACIAACIAACmhCAoakJVjQKAiAAAiAAAiAAAiAAQxNzAARAAARAAARAAARAQBMCMDQ1wYpGQQAEQAAEQAAEQAAEYGhiDoAACIAACIAACIAACGhCAIamJljRKAiAAAiAAAiAAAiAAAxNzAEQAAEQAAEQAAEQAAFNCMDQ1AQrGgUBEAABEAABEAABEIChiTkAAiAAAiAAAiAAAiCgCQEYmppgRaMgAAIgAAIgAAIgAAIwNDEHQAAEQAAEQAAEQAAENCEAQ1MTrGgUBEAABEAABEAABEAAhibmAAiAAAiAAAiAAAiAgCYEYGhqghWNggAIgAAIgAAIgAAIwNDEHAABEAABEAABEAABENCEAAxNTbCiURAAARAAARAAARAAARiamAMgAAIgAAIgAAIgAAKaEIChqQlWNAoCIAACIAACIAACIABDE3MABEAABEAABEAABEBAEwIwNDXBikZBAARAAARAAARAAARgaGIOgAAIgAAIgAAIgAAIaEIAhqYmWNEoCIAACIAACIAACIAADE3MARAAARAAARAAARAAAU0IwNDUBCsaBQEQAAEQAAEQAAEQgKGJOQACIAACIAACIAACIKAJARiammBFoyAAAiAAAiAAAiAAAjA0MQdAAARAAARAAARAAAQ0IQBDUxOsaBQEQAAEQAAEQAAEQACGJuYACIAACIAACIAACICAJgRgaGqCFY2CAAiAAAiAAAiAAAjA0MQcAAEQAAEQAAEQAAEQ0IQADE1NsKJREAABEAABEAABEAABGJqYAyAAAiAAAiAAAiAAApoQgKGpCVY0CgIgAAIgAAIgAAIgAEMTcwAEQAAEQAAEQAAEQEATAjA0NcGKRkEABEAABEAABEAABGBoYg6AAAiAAAiAAAiAAAhoQgCGpiZY0SgIgAAIgAAIgAAIgAAMTcwBEAABEAABEAABEAABTQjA0NQEKxoFARAAARAAARAAARCAoYk5AAIgAAIgAAIgAAIgoAkBGJqaYEWjIAACIAACIAACIAACbkAAAiAAAiAAAnog4OrqQhnSpydvby/yyuhJGb08pdeZMmUkD48MFODvQ0HZA8nXz4fc3VzJ1dWVXFxc6P79B3Q7LILCwu7QzZu36d69KLpzN5Lu8t+9e3TnTiRFRT2gp0+f6kFNyAACliIAQ9NSww1lQQAEQMC5BNKmdRcGoy9lzRpAOYKyUq5c2aW/7NkCyNfXh/z8MgsD04MyZEhPbm7Kf6IePnxEUcIQDRdG6I2boRRy4SqdORNCp06H0PmQy3TrVphzgaB3EDA5gTRBuavFmVxHqAcCIAACIOAEAhkzelGe3NkpODgvFQrOR8EF81KePEEUGOgvrVY6QaREXUZE3JWMzf0HjtHWbfvowMFjFB5+N9E9eAMCIKCMAAxNZfxQGwRAAARAQBDgbe8gsUJZvFgwlSpZmIoXD6aCBfJQYBZ/6TMjQOJt901bdtPyFf/Qtu37KCYm1ghiQ0YQ0DUBGJq6Hh4IBwIgAAL6JJAmTRppy7tMqSJUsWIpKlO6GOXLm5M8PTPoU2A7pdq95zB9Mn8Jrd+ww86auB0EQCAhARiaCWngNQiAAAiAQLIE+JBOieKFqGaNClSlchlpO9wshmVSSsfFxdFXi3+jydPm4yBRUoBwDQRsIKDc09qGTnALCIAACICAMQlkyeJHlSuWpnp1q1LlyqWlU9/G1MR+qXnV9q3ubSj0dri0uml/C6gBAiCAFU3MARAAARAAgUQE2LisXq08NWlUU9oW9/PNnOhzq705fPgkNWvZk2Jj4bNptbGHvsoJYEVTOUO0AAIgAAKGJ8AnxKuK7fDmzesJI7Mc+YtYlSjPCEin5EVcT47LiQICIGAfARia9vHC3SAAAiBgKgKlxGGeli3qU8P61Sl37iBT6aaWMpkzexOv6sLQVIso2rESARiaVhpt6AoCIAACgoCvbyZq1KAGtXq9MZUvV0IERncFlxQIpEuXlvxFViIO8I4CAiBgHwEYmvbxwt0gAAIgYFgCRQrnpzatm1CzpnUpe7YshtXDGYL7wZXAGdjRpwkIwNA0wSBCBRAAARBIjgAHUq9RvQJ17vgq1a5VidKnT5fcrbieAgHePkcBARCwnwAMTfuZoQYIgAAI6J4A5wpv0rgWvdGpJVUoX0L38updwEwihigKCICA/QRgaNrPDDVAAARAQLcEOKh6yxYNqEvnllRYbJWjqEPAw8McGY/UoYFWQMB2AjA0bWeFO0EABEBAtwTYwGT/y65vvC6lgtStoAYVjA8EoYAACNhPAIam/cxQAwRAAAR0Q8DL00MyMLt3a0N58+bQjVxmE8TNDT+XZhtT6OMYAvg/xzGc0QsIgAAIqEogbVp3er1lQ+rZowMFF8yjattoDARAAATUIgBDUy2SaAcEQAAEHESgccMa1K/vG1SmdFEH9YhuYmJiAAEEQEAGARiaMqChCgiAAAg4gwAbloMGdKN6das6o3tL9/nkyVNL6w/lQUAuARiacsmhHgiAAAg4iAAHV3+n3xvUrk1TwqEUB0F/oZuHDx+9cAVvQQAEbCEAQ9MWSrgHBEAABJxAgI3Kjh1aUL/enShr1gAnSIAu4wncv/8g/iX+BQEQsIMADE07YOFWEAABEHAUgcqVStOIYb0QbN1RwFPp587dyFTuwMcgAAJJEYChmRQVXAMBEAABJxEI8PelAf27ipSRLcjd3d1JUqDbFwnchaH5IhK8BwGbCMDQtAkTbgIBEAAB7Qk0b1aXRgztSXnyIB6m9rRt7yE2NpbCwu/YXgF3ggAIPCcAQ/M5CrwAARAAAecQCMoeSCNH9KaWrzZwjgDoNUUCDx8+pojwuynegw9BAASSJgBDM2kuuAoCIAACDiHAxuWo9/oQnyxH0SeBe/ciCT6a+hwbSKV/AjA09T9GkBAEQMCEBLJk8aNRI/pQ61aNTaiduVS6ees24dS5ucYU2jiOAAxNx7FGTyAAAiAgEWhQvxqNG9MfvpgGmQ9Xrtwk9tNEAQEQsJ8ADE37maEGCIAACMgi4OGRnt4d2J16vt2eXF1dZLWBSo4ncD7kkuM7RY8gYBICMDRNMpBQAwRAQN8EihYpQFMmDUFcTH0PU5LSnToVkuR1XAQBEEidAAzN1BnhDhAAARBQRKBNqyb0/ph3yMcnk6J2UNnxBGJiYgkrmo7njh7NQwCGpnnGEpqAAAjojICXpweNGtmHunR+TWeSQRxbCdy+HU4XL12z9XbcBwIg8AIBGJovAMFbEAABEFCDQIH8uWnWB+9R+XIl1GgObTiJwJmzF+nevSgn9Y5uQcD4BGBoGn8MoQEIgIDOCDRsUJ2mTR5KgYH+OpMM4thL4PCRk/ZWwf0gAAIJCMDQTAADL0EABEBAKYHePTvQiGE9kadcKUid1N+376hOJIEYIGBMAjA0jTlukBoEEhFIkyYNZcqUkfz9fMjf34cCAnwpcyZv8vb2Ik/PDJQ+fTpydXElFxFSJyYmhp48eUqPHz+hqKj7FBn1gO7ejaTbtyPorsiAEi5yOvNW4aNHjxP1gTcpE+DQRePGDKBOHVukfCM+NQyBSPH/x5GjpwwjLwQFAT0SgKGpx1GBTCCQCgE2HoML5qUyZYpRyeKFqGCB3JRNpDBkYzNdurSp1E7+4+joaGF8PqDwiLt061YYXbh4lc6fv0Rnz10U/16m6zduiQwpD5NvwKKfsGE/58PRVKtmJYsSMKfap0+H0I2bt82pHLQCAQcRgKHpINDoBgSUEuBVy0oVS1GL5vWoRrUKIqtMEPE1NYubmxtlzuwt/eXLm5MqVyr9vHleAb0pfnTPCcPz0OGTdODgcTp58hxdu36L4uLint9ntRd86OeTeeOoeLFgq6luen137DyAjECmH2UoqDUBGJpaE0b7IKACgQrlS9DgQW9R9WrlVDcubRWPV0pz5cou/dWpXVmqxlvsp8+E0O49h2nnroN05MgpChXhYKxSypQuSgs+nUg5grJaRWXL6MkPT5s277aMvlAUBLQikCYodzXrLkVoRRXtgoCKBJo0rkXzPhpLGTKkV7FVbZpiI3Pf/mO0YeMO2r5jP4WEXNGmIx20WrNGBfp47jjy882sA2kggtoErl67SfUbdhE+zPfVbhrtgYClCGBF01LDDWWNRsDFxYX69OpoCCOT2Qb4+1LjhjWkP/bl3H/gGK39Zwut37iTLgp/T7OURg1q0Nw5Y4kDsqOYk8COHQdgZJpzaKGVgwnA0HQwcHQHAvYQ8BSGTLasAfZU0c29fGCpRvXy0t9wsSq0c+dBWvHHP7RRbEfeuXNPN3LaK0izpnVo9szRxKfMUcxLYPWaTeZVDpqBgAMJwNB0IGx0BQL2EvDx8RYnyb3traa7+zN6eVKD+tWkP96SXL16M/32+98idMxp3cmakkAtmtWjj8TpciUn+1NqH5/pgwBHXNi5+5A+hIEUIGBwAi4Glx/ig4CpCfj4ZBLb5ulMpWNQ9kB6q3sb+mPZ5/Tt4pn0SpPaUpxPvSvJvrKzZ42Ckan3gVJBvk1bjL3qrgICNAECqhHAiqZqKNEQCKhPILN3RqedMldfm8Qturu7U906VaS/EyJM0pLvltMfq/7V5bZ6vbpVae7ssYYwiBNTxjt7CfBp8+Ur1tlbDfeDAAgkQwArmsmAwWUQ0AMBTy9rHDYpUjg/TZ08hP7640vq36+LdKhID/xZhkoVS9PHc96HT6ZeBkRjOThO7K7dBzXuBc2DgHUIwNC0zlhDUwMSsJovIMfp5Dzhq/5YSP36dHZ66KCiRQrQZyJOJqfyRLEGgZWr1iP9qjWGGlo6iAAMTQeBRjcgIIeAm6urnGqGr8N+nCNH9JYMzh5vtZPytTtaKZaBg7FzekkUaxB4+PCRiIyAbXNrjDa0dBQBGJqOIo1+QEAGgTiydj6FnDmy0bix/Wn50s+oZYv65OrqmK+sjBm9RFrJ8ZQ/Xy4Zo4YqRiWweeseOnvuolHFh9wgoEsCjvnW1qXqEAoE9E8g+mm0/oV0gITsw8mG3w9LPqKKFUpq2iMbs9OEvyin/USxDgE+BPTd9yusozA0BQEHEYCh6SDQ6AYE5BB49OixnGqmrVOtajn66fu5NHniYAoM9NdEz4H9u1HLVxto0jYa1S8Bjum6dds+/QoIyUDAoARgaBp04CC2NQhERj2whqJ2aJk2rTt16/K6FIezQ/vmxGk61SqNG9WkAe90Vas5tGMgAt8u+Z2ePn1qIIkhKggYg4B639DG0BdSgoChCNy7F0mxsbGGktlRwvJhnZnTR9DXi2ZQYbG1rrQUyJ+bpk8dRm5u1jyApZSfketfuHCF/vxro5FVgOwgoFsCMDR1OzQQDASI7t6NpIcPsX2e0lzgoO9Lf/6E+HS6m5u8HBQZMqSnmTPeI38/n5S6wmcmJbD426UUGXXfpNpBLRBwLgEYms7lj95BIEUCd4ShGRkZleI9+JBEPviM0un0b76aQQUL5LEbydDBb+Pwj93UzFHh8pXr9NvS1eZQBlqAgA4JwNDU4aBAJBCIJ3D//gO6FRoe/xb/pkKgVs1K9Nsvn1D7tk1TufO/jzm95Nvd2/53Aa8sReDLr36Rdg4spTSUBQEHEoCh6UDY6AoE7CUQExNLV6/esLeape/3881Msz4YSRPHDUw1T3yAvy9NGj/IYfE5LT0wOlT+fMhl+uWXv3QoGUQCAfMQgKFpnrGEJiYlgADS8gY2Xbp0xLERUyoj3+tNnPYSxZoE5i/4Dr6Z1hx6aO1AAjA0HQgbXYGAHAInT56XU83SdaKjY+inX1alyKBhg+rU+vXGKd6DD81L4NChE7RsxT/mVRCagYBOCMDQ1MlAQAwQSI7AydPnKToaGYKS45PU9aPHTtGRo6eS+ki6xoeHxozqp2oMzmQ7wwe6I8Ahw2Z9tIgeP36iO9kgEAiYjQAMTbONKPQxHYEr4lTs9RuhptNLS4VWr9kijPOYZLvo17sz5cubM9nP8YG5CaxZu4U2bNxpbiWhHQjohAAMTZ0MBMQAgeQI3L//kI4dO5Pcx7j+AoEnT57SuvXbX7j631vOm/5mt1b/XcArSxHgeJkfzFpoKZ2hLAg4kwAMTWfSR98gYCOB3XsO23gnbjt+4gydOROSJIg0adLQsCE9iAO0o1iTwBcLf6IzZy9YU3loDQJOIABD0wnQ0SUI2Etg5+6DKW4F29ueme/ftHkPcViopEqd2pWpQf1qSX2EaxYgcOLkOVr45c8W0BQqgoB+CMDQ1M9YQBIQSJbA6dMhdOnytWQ/xwfPCPAhj81bdieJw93dnQYN6JZqbM0kK+Oi4Qmwz+7EyR9TlEiCgAICIOA4AjA0HccaPYGAbAKPHj2mbdv3ya5vlYrXrt9K1p+1aZNaVLZMMauggJ4vEPj+xz9oy9a9L1zFWxAAAa0JwNDUmjDaBwGVCKz9Z6tKLZm3mSNHTiW5YpUuXVrq3aujeRWHZikS4AxAs2Z/meI9+BAEQEAbAjA0teGKVkFAdQJ79x0lXrFDSZ7Ajl0Hk/ywccOaVLxYcJKf4aK5CfCW+dhxcygi4q65FYV2IKBTAjA0dTowEAsEXiQQGRlF6/7d9uJlvP8/AfbPPHjw+Es83Nzc6K3ubV66jgvWILBo8a+0afMuaygLLUFAhwRgaOpwUCASCCRHYMUf64gNKpSXCYSF3aGQC1de+qB6tXJUpnTRl67jgvkJcJrJ2XMWmV9RaAgCOiYAQ1PHgwPRQOBFAvsPHKdjx8++eBnvBYGz5y7SnTv3XmLRpfNrOGn+EhXzX+AdgOEjPyBOeIACAiDgPAIwNJ3HHj2DgN0Enj59Sr/8+qfd9axQ4ZQIARUXF5dI1UKF8lGtmhUTXcMbaxCYNHW+eChDRi1rjDa01DMBGJp6Hh3IBgJJEFj11wYKC7+TxCfWvnRSBON+sbR6rRHxiXMUaxH48edV9IMIZ4QCAiDgfAIwNJ0/BpAABOwiEBoaTsuWr7WrjhVu5q3zhCWjlyc1b1Y34SW8tgAB9sucOPkTC2gKFUHAGARgaBpjnCAlCCQisOS75fTgwaNE16z85uHDR3T9RmgiBNXEIaCcObIluoY35iYQejucBg2ZQuyfiQICIKAPAjA09TEOkAIE7CJw7vwlWvXXervqmPnmcBEjMex2RCIVW7ZokOg93pibAPsvjxCHf86cvWBuRaEdCBiMAAxNgw0YxAWBeAKfL/yJeCUPhSg0NIzuP/jvdHGWLH5UrWpZoLEQgRkzvyBkz7LQgENVwxCAoWmYoYKgIJCYwKlT52nFyn8TX7Tou9DQiEQnzqtXK08+PpksSsN6an/3wwr67Isfrac4NAYBAxCAoWmAQYKIIJAcgfkLvoM/moBz61ZYIkQN6lVL9B5vzEtgw8adNH7iPPMqCM1AwOAEYGgafAAhvrUJnA+5TN8sWWZtCEL78Ij/wj1lzuxNFSuUtDwTKwA4cvQ0DRo8mR49emwFdaEjCBiSAAxNQw4bhAaB/wgs/PJnunrt5n8XLPgqIuK/jEAlSxSiwEB/C1KwlsqXLl2j3v3GIqastYYd2hqQAAxNAw4aRAaBhAQ4ePuHs62dz/nevcjnSKpXLf/8NV6YkwCHMWIj8+LFq+ZUEFqBgIkIwNA00WBCFesSWLpsNW3ZuteyAOJjirq4uFAFbJubeh5wjMy+74yjw0dOmVpPKAcCZiEAQ9MsIwk9LE0gJiaWJk/9lO7f/y/Ej5WAPHz0LMwThzUqFJzXSqpbSld+oOg/aCLt2HnAUnpDWRAwMgEYmkYePcgOAgkIHDt+hj6ZvyTBFeu8jI6OkZQtFJyPvL29rKO4hTR9/PgJvTt0Cq37d7uFtIaqIGB8AjA0jT+G0AAEnhP44sufaM/eI8/fW+VFrFjR5VKqZGGrqGwpPZ88eUpDhk+jP//aYCm9oSwImIEADE0zjCJ0AIH/E+BVnzHvz6bIqPuWZFKieLAl9Taz0mxkDh0xnZav+MfMakI3EDAtARiaph1aKGZVAryFPm36Z5ZSP41LGkqTJg3lz5/bUnqbXVl+cOKVzN+XrTG7qtAPBExLAIamaYcWilmZwJLvl9Mfq6yTntLNzVWknPSmbFkRP9Ms854P/gwcPImWLV9rFpWgBwhYkgAMTUsOO5Q2O4G4uDh6f9wcOnvuotlVlfRLmzYtZc8WSF5enpbQ1+xK3rsXRe8MHE+r/oRPptnHGvqZnwAMTfOPMTS0KIHbYRE0eOhUirr/wPQEMmRIRzmCAqXtc9Mra3IFed726D2a1v6z1eSaQj0QsAYBGJrWGGdoaVEC+w8co3Hj5xKvcJq5eHtnpOxBWc2soiV0u3zlOnXrPoK2bd9nCX2hJAhYgQAMTSuMMnS0NIGff/2TFnz+g6kZ+GT2ptw5s5taR7Mrd/zEWercZQgdPHTc7KpCPxCwFAEYmpYabihrVQIfzPrC1P5u2bJloezZs1h1eA2vN69gdu46hM6dv2R4XaAACIBAYgIwNBPzwDsQMCUBzpwzfOQM2r3nsCn1y54tgPz8fEypm9mV4tBF3Xu8R7duhZldVegHApYkAEPTksMOpa1IgE/y9hswnk6fDjGd+jlyZKNAkeccxVgEOGUqp5W8f/+hsQSHtCAAAjYTSBOUu5q5TwnYjAI3goA1CBQskIeWfDNLnNI2z+EZzh4TGxtL6dOns8YgGlxLjpE5buJc+vGnlQbXBOKDAAikRgArmqkRwucgYDICZ85eoJ4ifExoaLhpNEub1h1GpkFG8+q1m2KrfASMTIOMF8QEAaUEYGgqJYj6IGBAAoePnKKefUZTWPgdA0oPkY1KgH2E23caSFu3IXyRUccQcoOAvQRgaNpLDPeDgEkI7Nl7hHr1GUPh4XdNohHU0DMB3ibv0m0ohYRc0bOYkA0EQEBlAvDRVBkomgMBoxGoVLEUfb5gMvnj1LbRhs4Q8rI/5rQZC2jxN0sNIS+EBAEQUJcAVjTV5YnWQMBwBHbtPkRv9RhJN26EGk52CKxvAhwXs8ubQ2Fk6nuYIB0IaEoAhqameNE4CBiDwL79R6nbWyPo4sWrxhAYUuqewKo/N1Cb9v1p566DupcVAoIACGhHAFvn2rFFyyBgOAJ58+agz+dPpqJFChhOdgisDwKPHj2mDz9aRJ8v/EkKOaUPqSAFCICAswhgRdNZ5NEvCOiQAB/U4FSAnBIQBQTsJXDy5DnqJPKVL/j8BxiZ9sLD/SBgUgIwNE06sFALBOQS4FSA7LO5fMU/cptAPQsS+PHnVdSmwwDatRtb5RYcfqgMAskScPXOnGt8sp/iAxAAAUsSePL0Ka35Zwu5u7tRxQqlLMkASttG4ObN2zRq7Ic07+NviLfNUUAABEAgIQEYmglp4DUIgMBzAnFxcVJg7Wsik0u1quWJs++ggEBCAqvXbqG+/cfhwE9CKHgNAiCQiAAOAyXCgTcgAAJJEahUsTTNnjmScucOSupjXLMYAc4oNVsc+Fny/Qr4Ylps7KEuCNhLAD6a9hLD/SBgQQLsd9eu40DatGW3BbWHygkJrP1nK73eui99s2QZjMyEYPAaBEAgSQJY0UwSCy6CAAgkRSBdurQ05N23qHfPDuTigufUpBiZ9RoH9P9wzlf0kzj0w24VKCAAAiBgCwEYmrZQwj0gAAKJCDRrWocmjX+XAgJ8E13HG/MRiI2Npd9+Xy22yr+iK1dvmE9BaAQCIKApARiamuJF4yBgXgL58uakyRMHU80aFcyrpMU1O37iLM2Y+QX9u367xUlAfRAAAbkEYGjKJYd6IAAC0kn0d/q+Qf36dCbeVkcxB4GIiLtSZp+vv1lKUfcfmEMpaAECIOAUAjA0nYIdnYKAuQhUrlSaJo4fhNSVBh/WmJhYWvHHPzRn3td0PuSywbWB+CAAAnogAENTD6MAGUDABAS8vb3o3YFv0ptdW5Gbm5sJNLKWCjt3HaTZ4rDP9h37raU4tAUBENCUAAxNTfGicRCwHgH22Rw9si8VK1rQesobUGPOTz5f5Cb/Y+U6io6OMaAGEBkEQEDPBGBo6nl0IBsIGJRARi9P6iVCIPV4qx15emYwqBbmFvvSpWu08Ktf6Jdf/6T79x+aW1loBwIg4DQCMDSdhh4dg4D5CZQsUYiGDelBdWpXNr+yBtHwqkgpyod8fhYGZnj4XYNIDTFBAASMSgCGplFHDnKDgEEIcGD3V1vUp4H9u1KB/LkNIrX5xLx0+Tp9/8MK+vmXP+l2WIT5FIRGIAACuiQAQ1OXwwKhQMB8BPiwUPdurambOCzk7+djPgV1qtGZsxfoO2Fg/r5sLXHYIhQQAAEQcCQBGJqOpI2+QAAEKGeObNSzR3tq07oJeXl6gIhGBPbuO0JLvl9Oq9dshg+mRozRLAiAQOoEYGimzgh3gAAIaEAgODivdFjo1eb1ycMjvQY9WK9JDq6+fsMOKR85hynCKXLrzQFoDAJ6IwBDU28jAnlAwGIEihTOT127vC75cfJpdRT7CZw9d5FWrlovgq2vI36NAgIgAAJ6IQBDUy8jATlAwOIEOHd6+3bN6PWWDSlr1gCL00hd/bt3I2nb9n30+/K1tGXrHmyPp44Md4AACDiBAAxNJ0BHlyAAAskTCPD3paav1KY2rZpQqVJFkr/Rgp88evSY9h84Rn/9vZH+Xb+DLl+5bkEKUBkEQMBIBGBoGmm0ICsIWIgAp7GsVLEUtXq9kRSHkw1QKxYOpn74yEla9+822rBxJ50+c8GKGKAzCICAQQnA0DTowEFsELASgSxZ/Kh2zUr0SpPawvgsSRkzepla/Zs3b9O+/Udp4+bdtGPnfgoJuWJqfaEcCICAeQnA0DTv2EIzEDAlAQ6PVLVKWapXtwqVK1ucAgP9Da8nZ+g5eeoc7d5zmHbuOkDHjp9FzEvDjyoUAAEQYAIwNDEPQAAEDEvA1zcTlShemKpULk3ly5WgggXzkJ9vZl3r8/DhI7p+I1TaAj906AQdOnxCGJnn6datMF3LDeFAAARAQA4BGJpyqKEOCICALgkEBPhKaS6LFwumIkXyU8ECeShHUFby8fEm9vl0VImLi6PIyPt05849unb9FoVcuEJnhG8lZ+m5cPEKXb8eSnywBwUEQAAEzE4AhqbZRxj6gYCFCaRJk0YyMv3FQaJsgQGUPSiQsonQST4+mYhXQzkzUYYM6SltWndydXUlNhCfPo0WRuAjevjwMbm7u0mfs5Hq6uoikYyNjROB0Pmex/TgwUOKjHpA9+5FEm9/h4kc4rdCwyk0NIxu346gCGFo8gomCgiAAAhYlQAMTauOPPQGARAAARAAARAAAY0JPHtE17gTNA8CIAACIAACIAACIGA9AjA0rTfm0BgEQAAEQAAEQAAEHEIAhqZDMKMTEAABEAABEAABELAeARia1htzaAwCIAACIAACIAACDiEAQ9MhmNEJCIAACIAACIAACFiPAAxN6405NAYBEAABEAABEAABhxCAoekQzOjEKAQ47iL/oYBAUgQwP5KigmtJEcBcSYoKrlmRgONSZViRLnR2OoH06dNR5szeFODvI+XEDsoe+CxYtwjYzUG7vb29ngfsdnNzJZc0LlLQ7uiYGHry5KkUlPv+/YdSQO6w8DsUKoJw37p1m27cuC0Cc4dJAbr5cxTjEvD0zEA+mTORFNQ9WwBly5ZFvPcWAd0zi7mTkbwzehHPIw7q7iaCurMBERsXK4K2P5sjHJD93r0oKTd5eMRdKXD7tes3pTlyWwRw5+xAyAJk3PkRLzl/P2TOJL5LRPapLFn8KbuYK35+PpRFvM8krntl9CCPDBmkucL3uro8W8eJiY2VvkseP35CUVH36e5dEdxfzJMI8cfB/a9evSkF+OfvF55HnDQABQTMRACGpplG0+K6sNGYN29OChZpBwsVykeFgvNS7txB5C9+DDxFBpj4zC5qYWIDk38crguj4uzZSyJf9Tk6fuIcnQ+5JH44wtXqBu2oSIDnQv78uSlY5ETnOcL/5siRTcoelNHLU8WeiGJiYun+/QfExuYFkYLytEhBeUrkND8t0lCGhFyWjApVO0RjqhHgBwtOXRosvkOKFM5PhcVcyZMnhzAw/SiT+J5RO51p/MPKjRuhdPbcs++SU6dDpLSl/NDCcwkFBIxKAJmBjDpykFtajeSc1hUrlKSyZYpRYfGDkDXQn1z+v5LgLEScivDsuYt04OBx2rX7IB06fJJu3rztLHEs3S+vPpUpXZTKlysh/VtQGJZsbDqzxIoVruvCoDh58hztP3CM9uw9QkePnYbh6cRBYcOyYIHc0jwpX74E8fcKG5rp0qV1olQk0pveFw8pV+nIkZO0d99R2rf/KIWIhxaeQyggYBQCMDSNMlKQUyKQK1d2qla1HNWsXoHKlSsutq+y6J4Mb5EdPnqKNm/eTVu27qVTp89jhUKjUeOHDF7JriHmR43q5alkycLkJ7bA9V6uXb9F+4QhsXnLbtq2Yz9dunRN7yIbXj6eF/wAUrt2JapcqTTlzZNTrFS66lovXvk8KVbFt23fJ32XHDh4jB48eKRrmSEcCMDQxBzQPQFeWahVqyI1aVRLMi7V3uJ0JICnT5+K1asz9PeaTbR27VZp5dOR/Zu1L94Gr1enCjVsUJ1KCePS3d3dsKryKhYbnX+t3iQ9nFy5esOwuuhNcC/hQlOlShlq9kpdql6tnOS3rTcZ7ZHn3PlLtGHjTlq9ZrO0g8J+oCggoDcCMDT1NiKQRyLAW1lVq5Sl1q0aU60aFYWzfUbTkeGVCN5aX7FyHf27fod0OMB0SmqoEB/yqlO7MrV+vZFYkSrj9G1OLVTlgyObxCrnb0tXS6tYMCTkUeaV7RbN6lGjBjWEH3cOeY3ovNYJ4Yqx4o91tPLP9XTx4lWdSwvxrEQAhqaVRtsAumbNGkCvt2xIrV5rJB3WMIDIqoh4+cp1Wr7iH1r6+xqscqZClA/wtG3TlJo1rSP50aVyu2k+Zp/O35evpaXL1sDn14ZRzZAhvfQg0rF9c+FuU9bQq9w2qPv8Fl4R37hxF33/4wrxcLIfp9ifk8ELZxGAoeks8ug3EQE2HjqIH4SWrzYQoYh8E31mpTdR4pTyunXbaPE3SyXHfyvpnpquFcQhjc4dW1KjRjWIt0CtWkJvh9MyYXD++NMqOiNOsKMkJsAr3a3EKnfHds0t9bCamMKzdzt3HaQl3y2nNf9sQYitpADhmkMIwNB0CGZ0khyBgiIU0dvd20oGJsczRHlGIDo6mtas3UJffvWLdCrZylzYwOzVsyM1qFdN9RBVRubKDyW8Cv7lol+wCi4GkuPitmnVhLq+8ZoU1szIY6u27BzVYOGin2nlqvVSTE+120d7IJASARiaKdHBZ5oR4NPjPYSB2bp1EzLy4R7NAP2/YQ4KvmbtZpr3ybd07PgZrbvTVfvsV9dHGJhNGtdUPW6hrhRVKExkZBT9+tvf0kPJpcvXFbZmvOq8Rd6+bVPq8VY74u8VlOQJHDx0nD5f+BP9+ddGhEhKHhM+UZkADE2VgaK5lAmwUdlFrDj0eLud0+MZpiypvj7lg0M//rRS/Ej8SBwKx8yFM/P07d2JOrRrJmVZMbOuaurGgeEXfvkzfbtkmRR/Uc229dpW44Y1aED/blSyRCG9iqhLuTZt3kUfzf1axOY8okv5IJS5CMDQNNd46lqbpq/UoXcHdJMCq+taUB0Ld+tWGH386be05PsVIgVitI4ltV80Dkn0RueW1E8YmYEi8D6KPAJ8aGj23MX0198b5TVggFoczmrE0J5SOCsDiKtLETnF7i+//UVz5n0t0qWG6lJGCGUOAjA0zTGOutYiV85sNHxYL2rZor6u5TSScByweeqMz+jQoRNGEjtZWUuXKkpjRvWVAmcnexM+sIsA+29+MOsLMtN2Om+Td+/Wmvr16SxlBrMLCG5OksDVazelecIRL1BAQAsCMDS1oIo2nxPo2KEFDX33LSlH8POLeKEKAd5O/+LLn+iT+UsMe6LUwyO92CbvTD3fbk/8GkVdApz6dNZHiyS3C3Vbdnxr5coWp3Fj+0vpZh3fu/l7/FskCJgyfYFIeXnF/MpCQ4cScPXOnGu8Q3tEZ5YgwPEwZ05/j97p25k8LRyKRsvBdnd3k1YAK1UsJXIhn6LbtyO07E71tosVLUifzpsgxUxlXVDUJ+Dl5UEN61enAiKPN+fKvi9OqhutcFrI3r060qwZI3HYR8PB4wggzYR7Ez+ccJpLFBBQiwAMTbVIop3nBOrVrUqffTKRKgoDCEV7Apyik7OeREU9oEOHT2rfoQo9dOn8Gs2dPYby5cupQmtoIjUChYLzER+cuSAyxoQYaMUqd+4gmvfRWOL5goeR1EZZ+ee8KPBKk9oUmMVfOij06NFj5Y2iBcsTgKFp+SmgHgBXVxcaJA77TJ08lHx9M6nXMFpKlQCn7GQDP3v2QNqx86CIlafPnMfe3l40bcpQGvBOV5woT3VU1b2BA5k3b1ZXanTP3sO6zxhTV+SuX7hgMpXAiXJ1J4INrfEp/urVykv50zlBAAoIKCEAQ1MJPdR9TsDfz4dmzxxFXbu8Ti4uLs+v44VjCRQvFixyxJeRtknDw+84tvNUegsOzkufz59M9YVBjOIcAvz/ZtUqZYm3SXfsPEAPHz5yjiAp9JomTRrq26cTTZ8yjNg4RnEOAY78wJFCrl69SadOhzhHCPRqCgIwNE0xjM5Vokjh/LRo4TTpB8y5kqB3JsBxKF9pXEukJ7yom21SXm1d+NkUyp8vFwZJBwTY6K9VsyLtEXEU9eTby6lF2be7V4/2IguUqw5IWVsEPuXfRHyXsPHP6SxRQEAOARiacqihznMCNaqXFwbEVMojfKlQ9EOAfa34ByI0NJw4/ZwzC0cemD1zJGXyzuhMMdD3CwQCAnypUYMadPzEGV2EQOIVtAXCt7uxyGWPoh8CbGRWqVxGeoDdum2v6eL36oe0eSWBoWnesdVcs1avNxIHOt4XOYaxvaU5bBkduLm5UYP61SRfPGesRvAP1OBB3Wns6H44yCFj/BxRhU+lN2lcmziWIgd6d1YJLpiHvvpiGpUtW8xZIqDfVAiUKB5M/Ld5825dulykIj4+diIBGJpOhG/krruKNJLThA9V+vRpjayG6WVnY4998ng1cfOWPQ47AMIHw8aNGSAF1mYZUPRLIG1adykEUnj4XadELeCc9osXzaB8eRGBQL+z5JlkefPkoArlS9CGTbsMGSpL73zNKh8MTbOOrIZ6sf/UuLED4EOlIWO1my5bphj5+WWmTWI1IjY2Tu3mE7XHK6lTJw2RDoYl+gBvdEuADwnVqV1ZCpG1/8Axh8nJQdh5JTObiLuLYgwCHNmCH155ZfPevShjCA0pnUoAhqZT8Ruv83f6vkGjR/aVnMONJ721JS5VsojIIR5AGzbuFMZmrCYw2MicOWMEtW/XTJP20ah2BHjluXatSvTo8WPas/eIdh39v+VKFUvTws+nEPuKohiLQGAWP6ohwh9t3LST7sLYNNbgOUFaGJpOgG7ULt/u3lbko+5nVPEhtyDAPlYB/r60fsMO1bfReVVsyqTB1AFGpqHnWo3qFYTxEEkHDhzXTI8ypYtKkSo4LBqKMQn4+/tQZXFIaN2/26WVcGNqAakdQQCGpiMom6CPTh1b0KTxg7CSaYKx5GDMHOB9y9Y9qmrDeai7dWmlaptozDkEalavSLdCw+jI0VOqC1CoUD766svpIvuMn+pto0HHEsgS4Efly5Wgf9Ztowc6jMnqWBroLTkCMDSTI4Przwk0a1qHPvxgJHwynxMx/gt26I+JiaFduw+posy7A98Uee3fUKUtNOJ8Ai4uaYTPZiU6feaCiMd6QTWBcuXKTksWz6ScObKp1iYaci4BjttbvHgh+nvNJnr6NNq5wqB3XRJAChddDot+hGKDZOb0EcS+dyjmIuCtUlzLdm2aEhuaKOYiwP/Pz5rxnrRipZZmHI0gUybEU1WLp17aqV6tnDgAOBRZ4fQyIDqTAyuaOhsQPYnD4UZ4i8tf+PShmIsAx0x8d8gUkRP9qSLFatWoSHNmjyEOkYNiPgLp0qWl6iIpw78bttOdO/cUK8htRIi/hvWrK24LDeiLQNEiBcSChCtt275PX4JBGqcTgKHp9CHQpwAZM3pJYUcKikDKKOYiEB0dTQPenURnz11UpBg/iCz+cgZWqBRR1H9lb28v4sM7q1atV/xgwtqeOHGWSpcqQhyTEcVcBCpWKElXrtwQ2abOmksxaKOIALbOFeEzZ2UOczJh3AAqJX4MUMxH4Nelq2nrNmWrDp6eGeijD0cjNI35pkeSGrGhOe79AUl+Zu/FmJhYmjxtvgj4/dDeqrhf5wT4t2Pi+IHEQfhRQCCeAFY040ng3+cEur/ZBgc7ntMw1wvOff7OwAkiHMl9RYpNmTiYGjVETmpFEA1WuXixYGnb++BB5WGPwsIiyMMjPXEsTRRzEWB3iwriJPqqPzcgVaW5hla2NljRlI3OnBU5U8fI4b3MqRy0onmffEPXr99SRKJ926bUsUMLRW2gsjEJjBzemzjLlBrlsy9+pJCQK2o0hTZ0RiA4OC9NnIBweDobFqeJA0PTaej11zH7ZU6fOowyZEivP+EgkWICR4+dph9/XqWonYIF8kiZoRQ1gsqGJcCrkPwdwd8VSgunL5zz8WKlzaC+Tgm82rw+MoTpdGwcLRYMTUcT13F/I0f0oiKF8+tYQogml0BcXBzNmbuYHj16LLcJ4i2xqZOHkI9PJtltoKLxCfDp4hHDeqqiyB8r19O+/UdVaQuN6I/A6Pf6UDAOlOpvYBwsEQxNBwPXa3cN6lejzh1f1at4kEshAT78s1Zk71BSer7dnqqIlHMoINClc0uqX6+qYhBPnz6l2R99RbGxsYrbQgP6I5A5szdNFv7ciMOsv7FxpEQwNB1JW6d9cQDlsaPfQbBdnY6PUrH4lO/Hn36r6Me8sFjp7te3s1JRUN8kBDivPX9nqBF8fbNIhap2OlSTYDaFGlWrlKU3OmERwxSDKVMJGJoywZmp2qAB3YhjIqKYk8DmLbtpx84DspXjIMzvC6PCy9NDdhuoaD4C+fPlooH9uypWjN06Ppn/nUiJilVNxTB12sDgQd0pd+4gnUoHsbQmAENTa8I6b59PmXd943WdSwnx5BLgH+9PF3xH/GMut7Rp1YRq1qggtzrqmZhAty6tVDmFvnPXQeIHIhRzEmC/7lEjehPH2USxHgEYmtYb8+ca80rV8KE9kD7wORHzvdi+Yz/t3nNYtmK+vploEPKYy+Zn9oqcenT40J7EOcyVFH4QWrjoZ0XuHUr6R13tCTRpXItq16qkfUfoQXcElH076E4dCGQPgWav1KFqVcvZUwX3GozAV1//qujHu3ePjhSUPdBgWkNcRxKoXq0cNXulruIu+aFo3/5jittBA/okwH69w4b0kKJX6FNCSKUVARiaWpHVebscB2/wu2/pXEqIp4TA4SOnaOMm+duRHDOzaxe4VSgZA6vUHfxud8ro5alI3ejoGFr89W+K2kBlfRMoWaIQtWvTVN9CQjrVCcDQVB2pMRrk7C44AGSMsZIr5fc/riAOHyO39OvTmTinOQoIpEaADwa1bftKarel+vm69dvofMjlVO/DDcYl0LtXR/L2Vh7w37gErCc5DE3rjTlxbLO3urexoObWUfnWrTD6e/Um2QoXK1qQmjdTvh0qWwBUNByBt7u3VRzu6MGDR7T099WG0x0C204gV85s1KFdM9sr4E7DE4ChafghtF+Bju2bU46grPZXRA3DEFi5aj2Fh9+VLW+f3p3gSyWbnjUr5syhjgGxbPlaioy6b02IFtG6+5ttkGHMImPNasLQtNBgs6ocYBl+d+Ye9OjoaFq6TP6qEKcYfEWcEEUBAXsJdOvaSvG26KXL12njxl32do37DUSADxi2bd3EQBJDVCUEYGgqoWfAus2b1sUpYgOOmz0iHzx0go4dP2NPlUT3dnnjNYS8SkQEb2wlwDslarhcLF/xj61d4j6DEugkUh57eKQ3qPQQ2x4CMDTtoWXwe9OlS0tsRKCYm8CKP9bJzrLCKw38MIICAnIJdOms/EFl2/Z9dOnSNbkioJ4BCPBh1EYNaxpAUoiolAAMTaUEDVS/ds1KxNuiKOYlwL5ta//ZKlvBdiIagRr5q2ULgIqGJ8AHyZQG5o66/4DWrpM/jw0P0SIKdBPh0zhxCIq5CcDQNPf4JtKuPU76JeJhxjd79x6hq9duylKNt7Fee7WhrLqoBAIJCbRvq/xU8eo1mxWlTk0oD17rk0DpUkWJ/1DMTQCGprnH97l2vE3BGTxQzE3gb/HjLLdUr1ae8ubNIbc66oHAcwJqzCX2NQ65cOV5m3hhPgKcurR1q8bmUwwaJSIAQzMRDvO+ebVFfcqQAY7X5h1hIt5u3LxZfiagtq2VB9w2M1/oZjsBXh1/tXl92yskceejR49pw4adSXyCS2Yi0KhBDfLzzWwmlaDLCwRgaL4AxIxv+RBQ82b1zKgadEpA4IhIOSl325xjIFavXj5Ba3gJAsoI8KGytGndFTWyfiMMTUUADVA5IMCX6tapYgBJIaJcAjA05ZIzUL1SJQtTgfy5DCQxRJVDYJNYzYyLi5NTlerUrkxenh6y6qISCCRFoGDBPMTfPUrKocMniLNcoZibQNNX6phbQYtrB0PTAhOAQ0i4uGCozTzUMTGxtHXbPlkqpkmThpogQLssdqiUPAH+zlEavubOnXu0b//R5DvBJ6YgUKliScqeLYspdIESLxOA9fEyE1NdSZ8+HdWri20JUw1qEspcvXqDTp85n8QnqV/KlSs7lStbPPUbcQcI2EmAv3vYdUdJ4ZiaKOYmkDGjF9WqWdHcSlpYOxiaJh98jpvJJ85RzE3goNhifPDgkSwlq1UthwwdssihUmoE8uXNpTh27/4Dx2QnIEhNPnyuHwL16lXTjzCQRFUCMDRVxam/xjjMCLbN9Tcuaku0a9dB2U3WqlFBdl1UBIGUCHD4Gn6QUVLOnrtIvGKPYm4CZUsXpcyZvc2tpEW1g6Fp4oFn3zvEzjTxAP9fNfbPPHDwuCxFvb29sG0uixwq2UqghohmwN9Fcguv1B85ekpuddQzCIEsWfyoVAllh8cMoqrlxIShaeIhz5o1gEoUDzaxhlCNCYSGhonA1ldlwShRvBAFBvrLqotKIGALATXm2KHDJ23pCvcYnABCrBl8AJMRH4ZmMmDMcLl4sYLETtYo5iZw5uxFioyMkqVk+XLFFa02yeoUlSxFgFfNOf+5koIVTSX0jFO3fLkS+D4yznDZLCkMTZtRGe/GsmWKGU9oSGw3ASU/wpgjduNGBRkElM6zs+cuyX6YkiEuqjiJAMd79vfzcVLv6FYrAjA0tSKrg3bLlIahqYNh0FyEEyfPyeojo5cnFS6cX1ZdVAIBewiUEQc9lBR2D7l69aaSJlDXAAR8fDJRoUJ5DSApRLSHAAxNe2gZ6N5MmTJSsMjMgWJuArGxsXQ+5LIsJfPmzUFZAwNk1UUlELCHQKHgvMTfSXJLdHSM8EO+Irc66hmIQKmSRQwkLUS1hQAMTVsoGfAezl3thy0IA46cfSLfuRNJ12Su9HCKQA4/gwICWhPg76IcQVkVdXP6zAVF9VHZGASKFi1gDEEhpc0E8CtjMypj3Zg/Xy4YEcYaMlnS3rgZShF37sqqWyg4n6x6qAQC9hJwc3Ml/k5SUjieJor5CeC3y3xjDEPTfGMqaQQ/F5MO7AtqXbt2i3hbUU7h7UwUEHAUgUKFlD3YcND2uLg4R4mLfpxEICh7IPn6ZnZS7+hWCwIwNLWgqoM2gwvCiNDBMGguwuUr12X1kTatO+XOHSSrLiqBgBwCBQvkllPteZ0bN2/To0ePn7/HC3MS4OxAQdmVuVmYk4xxtYKhadyxS1ZyTjmZPVuWZD/HB+YhcPmyPEOTD2YgjIh55oERNOGVKiUZgiIi7gk3kXtGUBUyKiDAcyR7dvx+KUCou6owNHU3JMoF8vTIQP4BvsobQgu6J3BTrPLIKWxkeonwRigg4CgC/J3k5ekhu7sHDx5QRIQ8f2TZnaKiUwgoPTjmFKHRabIEYGgmi8a4H/j4ZqJM3vJDiRhXc+tJHhYeIUtpTk/KBzRQQMBRBDJn8ibeFpVbYmJiKTwchqZcfkaqlzMHts6NNF6pyQpDMzVCBvycV6s8PNIbUHKIbA8B/uENC7tjT5Xn97KhiQICjiTA30n+/sqyvoSFyXuwcqSe6Es5gWzCzQLFPARgaJpnLJ9rwqsGSnyhnjeEF7om8PDRI4qKeiBLRj+c6pTFDZXkE+DvJG+FOy1yH6zkS42aziDgo2Dl2xnyos+UCcDQTJmPIT9VkoHDkApbVOjHj5/Qw4ePZGnPqd5QQMDRBHx85G+ds6z3IqMcLTL6cwKBjBk94drjBO5adQlDUyuyTmw3D8LWOJG+47pmQ1NuuBelP/iO0xI9mYmA0gecqKj7ZsIBXZIhwIZmunRpk/kUl41GAIam0UbMBnlLlihsw124xegEeDXzaXS0LDWUbmHK6hSVLE8gk7eXIgaRMl1FFHWKyg4n4CEip6RPl87h/aJDbQjA0NSGq1NbzYETe07l76jOeUWTDwTJKRky4EtcDjfUUUbAI0MGRQ3IXcFX1CkqO5yAu5sbpcWKpsO5a9UhDE2tyDqx3SxZ/JzYO7p2FAE2MuPi5Bma6fEl7qhhQj8JCKRPr2w7NEZmutUEIuClAQi4urqSu7ubASSFiLYQgKFpCyWD3cMB21HMTyAmJppiY+XlfnZxQQxN888Q/WnoKlaqlJTomBgl1VHXIARcXNKQqyvME4MMV6piYiRTRWS8GziPNYr5CTxb0ZRnaOJL3PzzQ48aKth8yt8AAEAASURBVJ13MTJ9kvXIAjIlT4BDYfF/KOYgAEPTHOOYSIunT+UdEEnUCN7ongD/aMuNlxobK2/LXfdQIKCuCSiddy5iSxXF/ATi4uKI/0MxBwEYmuYYx0RayI2tmKgRvNE9Ad7+5i0mOSUGW5BysKGOQgJKfSzdYGgqHAFjVGeXILkHHY2hobWkhKFpwvEOvR1uQq2g0osEOFd5mjTy/hd+/Pjpi83hPQhoTuCRiJSgpLjhgIgSfIapyw/C0diZM8x4pSaovF+p1FrF504lcO3aTaf2j84dQ4BPZcpd0USYGMeMEXpJTEDpbks6+J8nBmrSdxwf+MkTPAybZXhhaJplJBPocfTYmQTv8NKsBDiosdwQIJGRyLBi1nmhZ73u3otUJJ6Xl6ei+qhsDAL8IIyHYWOMlS1SwtC0hZLB7jlz9oLBJIa4cghwija52TMi7tyV0yXqgIAiAnfu3FNUn1MTopifQOS9KFLqZmF+SsbREIamccbKZknv3lW2amBzR7jRqQQkQzO9vAw/EREwNJ06eBbt/M4dZd9NMDStMXE41Wg0QlmZZrBhaJpmKP9TROmqwX8t4ZWeCWQQRqanl4csESMilK0syeoUlSxPQOlDsE/mTJZnaAUASueJFRgZSUcYmkYaLRtlDQu7A/8WG1kZ+TY3kWXF10feD++Nm6FGVh2yG5AA+9zdDotQJHlAgI+i+qhsDALXb9wyhqCQ0iYCMDRtwmSsm8LC79A94eOCYn4C/v7yfnivX7+FOHXmnx660pB3WsLFd5Pc4uLiQj4+meVWRz0DEbhy5YaBpIWoqRGAoZkaIQN+fv/+A0IsTQMOnAyRAwL8ZNQisbJ0h3ieoICAowjwaqaSOZchQzrKnNnbUeKiHycSgKHpRPgadA1DUwOozm4yOjqGbtzA1qizx8ER/efMkVVWN7y6hANBstChkkwC16+HKlpFz5zJm3x95bmKyBQZ1ZxE4Np1xIJ2EnpNuoWhqQlW5zd69twl5wsBCTQnkCtXkKw+OHD2pcvXZdVFJRCQQ+DsuYtyqj2vExjoT54idiyKuQlERkbR1aswNM00yjA0zTSaCXQ5dep8gnd4aVYC2bNlEdmB5P1vfPp0iFmxQC8dEjh1Wtl3UlBQoEi5mkaHmkEkNQnwyvetUKRRVpOps9uS9wvlbKnRf6oEOGh7XFxcqvfhBmMTyCpWeby9vWQpcVLhD7+sTlHJkgRiY2Pp7Flluyx58+S0JDurKX0+5DJiaJps0GFommxA49VhZ2rESoynYd5/fX0zE69qyilnzuBhRA431LGfQITwCb5yRZmrRnBwXvs7Rg3DEThx8pzhZIbAKROAoZkyH8N+yic8z51XtoJgWOUtJLibmyvlyydvpYfnh9K4hhZCDVUVEDgnfMY57Jrc4urqQvnyypvncvtEPecQOHT4hHM6Rq+aEYChqRla5zbM2+YHDx13rhDo3SEECgXnk9UPnzqHn6YsdKhkJ4EDB48rcuXhjEA5guRFWLBTVNzuRAKRUffpxAmsaDpxCDTpGoamJlj10ei+/Uf1IQik0JRA8WLBsttnAwAFBLQmsP/AMUVd5M2bQwRrRwxNRRANUDkk5Aoha5kBBspOEWFo2gnMSLcfPXaGOIwNirkJFCqUjzw80stScu++I7LqoRII2ErgwYNHdPTYaVtvT/K+EiUK48R5kmTMdZEffGNiYs2lFLQhGJomngSXL1+jkwhzZOIRfqZa9mwBJDee5qFDJ0VawLumZwQFnUfg5KlzdFlhzNbSJQs7TwH07DACW7bucVhf6MhxBGBoOo61w3viJ8PtO/Zr0i/nyr57N1KTttGofQTc3NyohMztc05VqpXzPW+DPX361D5lcLfTCHAIIi3Ktu37SEnbadO6kxL3EC10snqbWoTO42xlSl0srD4uetUfhqZeR0YlubR6QuQInbM+WkSPHz9RSVI0o4RApUqlZVffvEWbVQQ2Yj/+dIlsuVDRcQQOHTpBFy5e1aTDLVv3Kmo3T+4gypMnh6I2UFkdAvzg+O/67eLBQf0YzYePnKJbt8LUERSt6IoADE1dDYf6whw6fIquXlM/nRfHbgwNDaMx789WX2i0aDeBcmWLEa/8yClbtu3VZOWxTOkitHrNZlr01a9yxEIdBxHguIVzPv6aArP4q97jlas36IgwIJSUsmXkz20l/aLuywSmTv+MQm9HEIebUrts2LhT7SbRnk4IqD9bdKIYxHhGgPPGbtq0SxMcnTq8Sj/+vIpmfrhQk/bRqO0EeNUnr8w4g2fOhNCRo8oOayQlqbu7O73+WiMaP2ke/b5sTVK34JqTCfBD6Nu9RlGJ4oXI01P9POKbNu0mDlmjpFSpXFZJddRVicCnC76T/j9uWL+6Si3+1wwfWuWVUhRzEoChac5xTaTVX6s3JXqv1ptKFUtR4cL5ae7H39DsOV+p1SzakUGAjboqMrfP2Zd39drNMnpNvUrzZnXJy9ODho6YTitWrku9Au5wGAE2Mru//R7duBFKbVo30aRfpd89bPxWqFBSE9nQqO0EvvzqF5o24zNq0aI++fpmsr2ijXceFK4bIReu2Hg3bjMaARiaRhsxGfLu3XuEeAtL7cJbtR3bNZOaZUOTDU4U5xGoU7uy7M7X/budnjxR/+BOUPZAeqVJbantIcOm0cpV62XLiIrqEeDvAzYyjx0/Q01fqUM5c2RTr/H/t3RJnDTfpzB8VvFihYRsCNSu+uDY0eAXX/5EEyZ9LLnmdPj/970d1W269W/hYqPFASObOsdNmhOAoak5Yud3EHX/geQrp4Uk/IQbEOArNc1b6FNnLFB0wlQLGa3SZkWx8iM37/nZsxdpz97DmqDq3OlV4pPxjx49poGDJ0nuFpp0hEZtIsDRAN58a4RkZHIK0y6dW9pUz96b1ohVcv7uUVJq16qI+JlKACqsy9vlk6Z8KhmBtWtVoqJFCihs8eXq7N61du2Wlz/AFdMQgKFpmqFMWRH2kYuOjk75Jhmf+vv5UPu2z1Y1ufr8Bd/TyDGzNDlcIkM8S1XhwNjp0qeVpTOHn/lt6WpZdVOrVLpUEapVs6J0G6+ajhj5AX32xY+pVcPnGhDgtLSdurxLfACIS7Wq5YkP26hd+HTy0t+V++Wu/WcrXdToNLzaOpupvejoGJo4+RNpu5xXGl1cXOitN9toouIGcYZAix03TYRFo7IIwNCUhc14lThLkFYpKd8QKyI+Pv/57Xz/wx/Ub8AE4lzaKI4hwIZDxy6DiVer5JZ1whn/5s3bcqsnWy9NmjTUq0f75ydV2aidPPVTmjJtviYPP8kKYvEP+FRv1zeHE29pc2HjoU+vjtK/aqPZt/8YHT9xVnGznCmG5zUbyCiOIXD//kMaPGwq8ZZ5fKlWtSxVqVwm/q2q//7629+qtofG9EcAhqb+xkQTifjH/Zdftfkfmrdr3+iUePvtr783UqeuQ+j0mQua6ING/yPABkQn8WN8SmEWKH4w+POvDf81rOIr/pGqW6dKohYXfP4D9e73PoWF30l0HW/UJ7D469+oR+/RiVjzKnPVKtoYDz//8qdqLjS8ovlGt2G06k9t5qb6tI3b4qVL16hr92GJokRwKKN3+r6hyQPJ6dMhtGPnAeMCg+Q2EYChaRMmc9zEJ0DjVzPU1ujNbq0oa9aARM0ePnySOnQehLAViaio94a3tNhYe6vnSNUCHX//00rJl1I9KZ+1xKuaA/t3fSnWJ8fZ7Nj5XVVWv9SW2QztsTvFyNGzaOz4OYnGlX1mBw3oponxwMYKj6uahR+C+g0YJ0W3QC5sNcn+1xZncGrXcSDt3HXwv4viVQMRzqha1XKJrqn15rsf/0g0L9VqF+3oi4Crd+Zc4/UlEqTRisCTJ0/IwyMDVa+m/peGp2g3Xbp0tH7DjkTi3xeHAXglgldUy5crLrZPXRN9jjfyCNwOi5AMiC8W/kQv/vB6e3tJW9JyTnGGiXaLFS1IwQXzyhMshVr8IHJNpC59MYB3aGg4rRIrqX5+mZFqMAV+9n7EK9zvDJxAf63e+FLVNq2aULeurV66rsYFfvjZKpIAKCm5cmWXqifMPMbzmVe/OHd6+fIlKGNGTyVdoO7/CfD3x8JFP9Nw4Tv94u6Ch0d6mjfnfQrwf3bgU01o7KYzeuyH9PDhYzWbRVs6JIAVTR0OipYi/br0b818J9u3bUplShd9SXw+hMThj7p1H6HIh/Clhi16Yeu2fdS67TuJtrfiUXA8zXkfvU8FFRiKi79Zqtq2Z7xc8f8O7N8tyR8tXrHi8EfD3ptBnPMYRRmBn3/9k9p06E+7dideneJW/Xwz07uD3lTWQTK1eRz5O0ZpGTLoLerfr0uSzfBqaeu2/YhDcqEoI8CHcHoKl4pJUz4RBt+jlxrr1qUVFRGxkrUoPE/Cw+HHrwVbvbWJFU29jYjG8kRFPSB/8XTKq4tqFw6VUiB/bvp9+dokDZWLl67Sn39voEyZvKVVM95ORbGdAIeKmStSBfIqAOcRT6pwqJq332or0oOGv7QFltT9SV3jVcfy5UpQbpFtSO3Cq1AZvTyFkbAtyaaPigxF64XPaW6xopUnd44k78HF5Anw2I0d/xHNmft1sitFo0f2pZo1KiTfiIJPvv72d/pbYYIINoTHvz+QKohVy3/WbaPbIuXhi+XuvSixCr5ePJRESg+36dOne/EWvE+FAMe07S9WvPnAVVIlf75c9NGs0aQFW36YHP7eB3RPhDZCMT8BGJrmH+OXNDx79gK1btWYMmRI/9JnSi8EBQXSPfEjkNwJdz7RyCFLTogTqcVF2ruEp9WV9m3m+tt37Jd+FP5Y+e9LW+XxeufKmY3mzR1HHmJceZuaV7WePrU/pBVvUV4X2WI4faSLi/oPAxyL78CB48QPHkkVNixYz7CwO1RKhEZifVBSJ8DhqQYMmihWMQ8lezO7zYx/f4Amvpm8OjVk+DSKUphyspWYd5xRiv1I+WFjhZgL7HrzYomNjaP9B47Rv8JdR3owyYMHkxcZJfWe/fT5YfXDjxYla+jxAaDZs0ZREQ3iZrJMXy3+TSw6bExKPFwzIQEYmiYc1NRU4tzDmTN7Ewf41qKUE6ulfBKaV9WSK2fPXZKMCf6cDQ/OMoTyMoHrYoWKU79NEDHt+HVyhVeT58weI60U8z1swHPWF7mn/nlLjd0g5OZPT05Ovs5hdcqUKUrL/1iX7EEANiI4LR0Hcs6UKSMVKpQPgbuTgcphhEaOnkmfiODakZHJ5xXn/+c/XzA5SdeFZJq26zKnKVR6CIiNy6mThlBgoL/UN6+qs5/33hQyDLFfMc8lPoTE3yU8X1BeJsD+rt/9sEIKXZTcQkB8ra5vvEZvd28b/1bVf/mBZPDwqeKB5IGq7aIx/RKAoanfsdFUsjNiVfP1lg2JcwmrXdho5AMlf6z6N8UVNfYJ2rJ1j2SUsrN5gQK51RbFsO3xyu/34kfhXRHPjk+DJrWik1C5Xj06UNcurye8JB4mMtFSEahfbmFjs/XrjTVZ/WJDmDNKrUklI0iE2GLj9HT8w5hHrFjJzXwkl4Ge6/GD3Ow5i6TVqfgA7CnJO2nCu88D56d0n5zPWBZezeR5q6Twimuf3p0SPVSwGwcfLuKc7MkVXoVng3uFMDhjxetCwfnE4UR5yQuS68PI1/mQ5uChU+kHccqbDfeUCn93z/torGb8+LAYu0SgWIcADE3rjHUiTfnLho0XTiumRckmYmt6eXpIRmRq7fOPFBul7CuUJcCP4k+cplbPjJ9zRhXeNuYf7V9EIGNbnvrZl23WByPJ3d0tEZLsIs/4tu176dq15FdCE1V44Q3X4xUl/uHRonC7N2/dfukUelJ9XRSrVZzdKuTCFWl+xKc9Tepes19j/7ZvliyjYSOmE2dVscU9gnNUDx7UXTM0H3z4BW3dquykOQvHvpn58+dKJCfPa15dZ59CTmOaUnkgPbzulR5g0gm/zYLi4ZVXSa1a9uw9QuMmzKVZsxdJ7jCpcciY0YsWfj6Vcgo3HC0KrzoPFfM2tXHUom+06TwCMDSdx97pPXOYkPr1qmm2lcapB9lY4S1cW8oFYUTwCtyRo6coMIs/5cyhzZedLbI4+h7+4uUf0pFjPqSvRHDtpA5AJCUTr/At+mLa83zzCe/hLWoOZ/XnXxsTXrbrNa+Usc+cFgcCWBAO5M5x+/gQS2qFw7DwqtVvv6+my5evST+GWoRdSU0OZ33OJ7p565PD0PDDSErb5AllLF2qKH08R7sVKh6T0WNnK87yVLJEIRo5oleSIdB4nPn7gPOns1tFaiVcsPpn3VYRbm0nuQq3knx5c1rKPYddDdjdZtqMBTa7z/DhzGlThlLd2pVTwyv78/ET50l+tbIbQEVDEoChachhU0doXgnhWGYtmtdLtFWlTusktVlNbIXt3nOIrl67aXOz589flvIkc2iW9OnTSwbFi6t1Njem8xs5HiYbThxU+9vvltm06hCvEh/m+uzTiVSyROH4Sy/9mztXULInd1+6OYkLd+9GSiulWgVsZjcLNjZ5C91Ww4nDZR09dpo4dR0bwj7C9zBHUFZN5nASSBx+iR/A2P9xzPsfSSv/PCa2Fj4UtvjLGc99Hm2tZ+t9vGU9XISk4gwvSgufhi9eLDjZZgoF5yXRnV2ZZG6FhkkG59p/ttATsVvA88TLyyPZPoz8wZMnT0VyjB00UYQqmvnhl1KmMFuM8nid+/bpRL17dox/q/q//H0+aer8VN2AVO8YDTqdQJqg3NVSfzx0upgQQEsC8z+ZQC2a1dOsCzYyO3QaROdDLsvqo7CI48b+pE0a1RKHU8xxsvTwkVPSVjAHKk/J9yw5YLz6MGPqMOrYoUVytzy/zqeRBw2Z/Py9vS/YBeL33+ZLBy3srWvr/bv3HBap74YLY1NeuJNKFUtJK6+8Qp8li5+t3er2Pj64wdueS8VDyGrJCLefC4eRWrxoBlWuVFozPfkQzjsDxitun2M1rlz+Raor57yqPUQcJOE5LafwyugrTWpRK+F7XKpkEbF6avxQ0pevXBeH5rZK8Uv5AUxOadmivnSYUCs3A96xad2uP3LWyxkcE9SBoWmCQVSqAj/lr1zxhWZb6Cwfb6+90W2otIIqV142eHhlreWrDaiKyNHs7+cjtymn1GP/JA7FwpmS+HALr8zJLaNG9CFegbCl8Jd8s5Y96aRY/ZNbmPv3336oqb8bn1juJ4yWhNlg7JWXDQnOqd6ieV0qW6aYyB7jZW8TTruffaZ5ZZBTxfKfkvHileKPRUaXpq/U0UwfjuXa/NWexIfGlJa5s8cK46+RTc3wfO7bf5wUJs2mCkncxAYmG5rNmtaR3Id4a91Ihf10OUsSG/p8UMqeVe4X9axRvbzkl8nfr1qVT+YvoekffK5V82hX5wRgaOp8gBwlXqeOLcQK2XBNu2Pj6s23R6iSDYINiopiFauBWMGqXLm0tCWmqfAyGueDPSEhV8TJ+r1Sak6O+cehpZQWzpgyYlhPu5pZsXId9es/3q46L948eeJg6vbCyfYX71H6nleqho6YJozwGKVNEccVZQO5fv1qVK5scV0+mHDkBd7+3ygO9bA/4fETZ4i3QJUUDnU1Y9pwatemqZJmUq3LWZx+/GllqveldkPJkoVp2a/z7TrlzCvfb/UcRRxfVmnhyBtsdNarW5XY6OKkE2yo662wHzOv/HOyA46VmlK4M1tl5xB3X34+jXx9M9laxe77OBVqy1Z9VPnus7tzVNAFARiauhgG5wvBP05fLJhCDRtU11QYPvjRq8+Yl3LqKumUc3tz/DzePuVQKBxzMauIw8eHYRxZeCWO3QSOHTsjDrgckLY+z567qNhwSKhDn14dadR7fez2R+TVU966SikeYcJ+knrNIYl+//VTcZI3T1Ifq3btp1/+pPdGzVS04vuiMPxgUkIcNuE5wkYnh9Jyxor4gwePpED1+/cfo53CZ+3gIRG4/uI11fzWeOtzingg4AdHLQtv5/fqMzrZ5AH29L1o4TRq1KCGPVWkezkvd993xknhv+yunEwF5pcvX04pK1GVSmWoWLGC0iEkrQ7DJSOG8EWNk3Z/TgojjY1L9nPn12qmZ+VoFfydr2UEB35o6tRlsF1+tckxwXXjEoChadyxU13yIBEOZ8Xvn0lZZVRvPEGD7HvWu99YRdvoCZp76SUbnnlEWJ7ChfKLzBb5JcOIMxaxYcFbqWxUKylsUHL2Iw7Nc+HCVWJjkk/wnzoVQuwvxVt7WhQOT6MkRM3mLXuE+8IQRcZBpYql6Ycls+1afZLDYunva2jEqA80Y8lzgQ0KjrfIc4TT7bELCa/seIotRKUPKTwH2Ci4cTOULghDkld1eI5wAH2OxMCr3WoXjhs5XfjttmnVRO2mE7XHK2stX+9tU6SARBWTeFOrRkX69utZsn0l+f/Dd0QaRY4TqUVhpvy9yA+vhcUfP6DkzZNTRMXwkwLDKzVA2eeUMynxoUB2QTh39qK0wn3i5Hkxb66oalgm5FO1SllaIA4ScrpPLctHcxdLGYi07ANt658ADE39j5FDJWzSuBZ9Pn+S4h/a1IRmn80+/d6nc+cvpXarKp/zVhhnRmEDg1e3/Px9yFes0PE13jrzyJCB3NO6kauLqwj4HEtPxZP4U7F9ywYD+z+x0RBx5y7duhUuMh6F0Z2796Tr/EOhdWF/slHv9aVePdor7ooNfPYRVVKUGry29s1Bnd8dOkWzH9sX5eBT/HyC3V/MDX8xR3iusOHJmWY8RZgo/txNxHR0SeMirThFx8RI/qQPHjyUTsxz+CE2GDhTzS0RG5bfsyHEq1NaF364mi3yUjduaP/KoD2ysR9pT7EjoTQDEPfJ/0/yCjmHX1JSOEg8xxTlWLyOKPwQwrx9fLyluL+8Ipg5k7eUjYvnChufacU8cRf68VyJiY2haBHhg2N8sqz8fRIWzvPkjpQ9jVdmea4o8U22R+9XmtSmDz94T3P/ZT5l3vGNwQ7Tyx4GuNexBGBoOpa3IXp7f8w71PNt5UZNasryE/zAdycLf6ODqd1q2c/5h4tj26kVFYBXX/kAhxJfUTYQvlo4XbNg/wkHm/16Bw6eLFaOryS8jNcJCOTKlZ34MA1vhWpdPl/4E00S4XPUKF06v0ZTJw9RoynJp5eDxs9f8L0q7Zm1kTe7taaxo/pp7oPKSThat3vHYQsJZh0vs+iFOJpmGUkV9WA/Sj6xm1v8gGlZeFWg6Su1pad6W4O6aymP3trm7dwvPptCtWuql73JV2yV8UEbJYcoeBV3uzjxyn51vCKsZeGA9A3EYR7eer50+bqWXRmybY5BuvCzqcJHOb/m8rPrBcfMjBEruUoLZw77ZO441VLg8ipjjeoVJN/sbTv22ZQtSakORqrPq/HjxAIC70a4uipzHUpNb/YHHzh4kiJ/8NT6wOfGIgBD01jj5RBp+YdkpzAkGjeqSZm8M2raJ6+ONRLbfbxlyQ7vtqTT01QgnTTO21vzPx6vycGbEsUL0br1223OPpQUEk6Neez4WbHSWvel1JdJ3a/kGs/BZk3r0sOHj6U0pUraMlPd7m+2EVugI6Wtfq31YiP/7Z4jVXNjmDBuAFWsUEp1sZ8d+CpNh46cVDS/VRfMiQ1y7OFP542XEnM4QozZc76i70VOdRQQiCcAQzOeBP5NRICztBw9eloEN65N6dKmTfSZFm84lzE7qB8X6Spv3grTogtDtMn+opwhZezofpr5ULFxzwcaVogYfOxzJ7dcFa4P7JPIIaY4gLyWhU8D165VSRzeyUt8YlvJ1r+WcjqibV4N/GD6cJHFpYPmRj7rw6x79x0jnXpWQ786IsXhSBEHVumBq+Rk4YN/zV6pK4VRs/pOCcccnj9vAnHSC0eUZcvX0sTJHzvEL9kR+qAPdQjA0FSHoylbuXr1Jl25fENacdTqRyEhON4mbSEyVMSKrdnDYkXCEQdtEvbv7NecwYWDbLNxr7Xhxm4RHIuQfSCVFH4Y4a04LbPPJJQvuGBeaiIyu7AP2KnT5xN+ZInXzcUK8sdiy5njHzqisJvFkKFTaf3Gnap0x1mbPv90kjhkpe1pZ94q5p2SvHlySA/MfCjLSoVTj04YN5CGD+khRVFwhO4cQL7/wIk4/OMI2AbrA4amwQbM0eLyjzmfvK4pwpA4ovDqac0aFSTDJUSkrORQMGYvfLJ5xLBeNGnCIBFKJavD1L146aoUJFxph+zTmz17lhTzVCvtI2H9eN/e/PlzSb6bfGLX7IW3PydPeJeGDn5bOgXvKH2nTJtPP6gQlD1e3pw5s9ObXVtpHh4rvj9ObckH6aLuP5B2SxwRASC+b2f8ywsCnGFpnnhgrVq5rMNEOHP2ghRAP9wC/y86DKqJOoKhaaLB1EqVvfuOUvp06aiCg1ZRWA+Oafh6y0YimLAfnRGxB824IsHbwa1ea0RzPhwjspJU0dxJP+H8+FPkWB85epYqQdH5x5sPigSLmJScVcVRheMaco5md3d3aVvXUeFhHKUf98NG9dvd29KsGSOpTBllYYDslfvTBd/RnHlf21stxftv346goyKhQeOGNTU/+RwvCMdFZfcOTuZwRcS55Z0aMxaOOvDB9BHUu0cHad44SkeOHfxWj5EiEcE1R3WJfgxGAIamwQbMWeJu3b5POrDDvpSOKrwlW7pUESm3Ocem45ibHLPQ6IVXHdiwnDnjPer+ZmspHp8jddq0eZe0xcVx/dQqvMW6fv0OkX0nWATLz6FWs6m2w1uknGaSD65xEPTzYo6Y4UCZh0d6ai0Cr/Nhn1eb15dieKYKQ8Ubvlr8K02eOl/FFv9r6uLFqxQiwlVx1AKtT0D/1ytJUTT4wY7zmvPhJna/MEPhVdt4v+58eXM5VKWbN29Td2FkchpVFBBIjgDiaCZHBtdfIsCBw6dPGUYd2jd/6TNHXODcvnya8Zdf/1IlK4kjZE7YBx/CqSsOQvBpYT745Iyydds+KSuTmqnsEurB4Y4WipBMHHbHGYXDIC3+ZimtEiu2WumopV4cN7VZ0zoip3wrYgPCGeX7H/6gUWNnae4jzVu8M6e/57CVzYQsOcc8z5Gvv/2dDh06kfAjw7zmHPEci/TV5vUc/iDCkPggIK9kKvXzNgxwCCqbAAxN2eisWZHTN04cP0j6gnMWgfDwu7Tyz/X029K/DRHuhg9ANBErbu3bNacSxYOdhY02btpFffuP09wNgXOiczgV9rV1VrkktvGWLlsjnaznIPV6Lxwz9VXhBsArbrlF+lRnlW+WLKNxE+ZIsVYdIQOv1n44c6SUTccR/b3YB6+Cb9q8h376eSVt3rpH7Jiot8r/Yl9qvOeV7hrVKlC7tk2lKAz88OqMcuNGKPXqOxZGpjPgG7BPGJoGHDRni8xbv2NG9XVI9qCUdOXt2j17D9PKVetpgzgVy75Ceilewi+snPAJ41PCvE3OaS+dWTid44BBEx0WFohzys/7aKwUbN2ZenPKv23C7eOPletoy9a9IvXfHWeKk6hvPgTGRkNzsSJVvVo54jnjzMJZf/jwj5KQV3Lk5ygL7KfMRpQzCx9o4dSaf/29kThFrl6iXvBOUpHCBST3EGYVXDCPMzFJ37M9e4+mIyLiBAoI2EIAhqYtlHBPkgQ4y8S7A9/UPBRPkp2/cJEPC/EWzr8iEPkOcQr6/PnLks/eC7dp+pZzHpctXYxq164kDIjylEeEVtFD+W3pamkr1NGrNWw4zJg6nF5r2VAPGESe+jDaKdKdrvt3uzRXeNXTkaeQOWRVzpzZqFzZ4uLhoypVEeGsAgP9nc6GGXw0dzFxoG1nFY6ROmf2GCm/vLNkiO+XM9scEweWOKTTFrHKeeLEOYc9oMXLkNHLU8S+zCdlO6pbpzIVK1pQOvQW/7mz/mXXlD5iV+T06RBniYB+DUgAhqYBB01PInfq2IImvD/QaVtfSbHg7bCz5y7RgQPHaL/449WJy1dukJphcPhwEseqK1ggN5UqWUQyHooWLUB+GscHTErflK7xyeEZM79w+CpVvEy8GsOhm/r27hR/SRf/crgb/tE8cPC4FAD+pAjjdV2E0lIzEDwbC9myBVAhcTqeU7ryQToOnO3slcuEA8Chy96fMJd+0EEmF3Yr+US4XLAbgZ4K75QcOXJKejg5LP7lg0y3b4er5l7A7kj+Yscjj3CZKCX8LnmusP9lzhzZ9IRB2hkYOHgy8bY5CgjYQwCGpj20cG+SBOrXq0qzOBWen0+Snzv7Im+BhQnH9Ssikw2vYl0Qp16viYNFoaFh0oERTqf4UPzgxorUm3wvrzy5CAOJY3pmEKtyPpm8pZPh2bMHUpAIu5QnT5D0I5A1MMDp233JsX3y5ClNmvKJdDAmuXscef3Nbq1p7Kh+Tjn4YYue/HDCGamuiAcSji/K8+T69VAKFQbF3buRUhxGDp/EyQR4a5ndR6Q5ki6tZDjyIR6e/xxPlGNFckB8Xr3MIsJzOcuPLjW9Wbchw6aJWKo7UrvVYZ+zcTVXuFw4KiC9HMV4Ply9dlOaIxzSh79X2Pjiw2e8s8IHjXhVNH7rnR+2OJSZh0cGke3LUwpWz37bHMKN50ku8Rckvlt4Dum1cMYfDofGD2goIGAvARia9hLD/UkS4BOyH84cRSVLFErycz1fZF9Pzu/O/8bGxUqiuonQSu7ubs8MCmFUGKmwET1i5AeS36qe5K5bp4rYSh8mVvmy6Eksm2ThuRFvPPAccUnjIkLzPDMgeEXKaOXw4ZM0ePg0OqnDsDS8Evz+2P7UoV0zo2GVjMv475KY2BhJflcXV2FoPvvjBxQjFZ7z7Fbxyfwlzw1nI8kPWfVBAHE09TEOhpeCAzH/KZzoswqfsyJFChhKH/7y5x8CXnniVUz+izcytU4FqTYoztLTQzjqHxRbwnorvOXIPrRFhb8Zr+YYqTybI27P5wjPFV6lMprhwMyX/r6G3hk4QQQuv6HLIeDV+H/WbaU7YuWQU5vy/4tGKS4uaaTYoCxzwu8SjhdqtO8S9mkeNHiKFFLOkb7MRhlryGk7ARiatrPCnakQYH+v1Wu3SNtH5UWWCr1uGaaihiE/5u3cRSLI9tAR03QdiDpCbC9yViKPDBmkYPxG+/E15OT4v9Dsfzp1+gKaNuMzKa2s3nVh/1k+4FdKJG3w89M2N7reWThaPo7U0Kff+1JUD0f3jf7MRwCGpvnG1Oka8QEcDgxeTByO4QMzKNoS4CwnQ8U26Jdf/ap6VpzsYpvbS/iVRQkjRa3CmXs4pidnEylbtphD0+WppYPR2jl46LiIoTqe/l69SXXROdwOr0Lyn9qFD+KsEjFzOTZr8WLOi0Grtl56bY/HcO7H30j+mOzDiwICahCAoakGRbTxEoEbN0Ol+Jach7pUyUIOTTX3kjAmvrBCxId8Z8AEOqhBdhN+SFjy9SwpBehasZV5X+WDABxInQ0fDvFTSORJR1GfABsOCxf9Ih5EptNl8UCidildqij98L/2zgK8qqPp40MMiKHBCQnuLi3uFHcKLZQibXEplPZFCqXFSoG20EIVKliB4g7F3d3dnRCCJCR8O4cvkITIlT33nnP3v+/Dk5tzVmZ+O28zd2Xm7wkiEUE+Yhvhs6yyC1+uWbV6s3aJj2/u+4oznCjyCRw5ekpslX+lZV6LvsgkfxT0qCIBOJoqzrqDdOY/chs37aQdOw9Q3rxBWN2UyP2CuDk/aMh4LfahzNXGaBE5Jujvv4yiwsKB4M9lxFEIDvouMz86jxUaGia20tdrOcp5LCPfvI1mY5afvPXcu+9XNHPWYgoXt+plF15h/O3nkcQ3qHOLMF+B4rb9GnEGVy8nhVfAly3fQKlS+1FBcQ4cxy7kzCg78pN/mk4DPh0jwsIZP4uWHK3RiyMJwNF0JG1Fx+LwHwsWrRZhP55qfyBSpnRuBhAzTwOH4flr+kLq228E7d1/RBdV2LHkfOUlSxR+2T/fFOdMRxwK59Gjxy+fy/pwXMS05LSibBucBYUvT6DYRoDjxX4/6U/63+BvxCrgZds6SaIVx7z8TXwR4ZBf0YVjhGbNkkkEOt+mm7P5IPQhrRTnwHn1Lb+IT5o+vTFDqkUzMfpPPovJsTH5gpgeRx+Mrj/kcwwBhDdyDGeM8v8EgoOzUa8e7alp49raTW+AsZwAp9n8ftIf4oD+IcsbWVmT4xj+9OOXWsDo+JoeEFv0H3YdrMURjO+9jGelhUPbt/f7VKVyORndKdMHb1vPX7hKs5Fz5/RxMBkmzw/bSEJZjZYsXUf9BowURy3kfyGJOZmc5vS9tk2oc8dW2qp7zHf4nDiBs+cuibOY02jhojW6HHdIfHS8VY0AHE3VZtwg+r75Rgnq0b0dValU1iASGVcMzinMcew4B7OeYUZy58pBP0/+ShxzCE4UBm9hfth1EOnpzHDYoIb1q1OXj94R5/9wCSTRCREvN4gjKpN++Iu2bd+XVFW73nNO9h8mfpFkBixe+e7ZZ7gW7N6uAS1ozKGy2E5atahn2AQKFqjhkCocsuiv6Qu0RA4cYB4FBBxBAI6mIyhjjHgJ8BmralXfoK7ijwQ7niixCfD24O9T59KiJWu1bCOx38r9jS91/DhxmJalxJKeOXNO917DtBSOltS3tQ6n+mzcsCZ90KmVlr7R1n5ctR07lj9Oma7d4tfzSwjza9SgBo0ZPYA4oLolZYfIK9+j93CRYemmJdXtrsNJIzqKDFSNhL34+KS0uz9X6uDO3ftamtE//17gsPlwJX7QxT4CcDTt44fWEghwhhV2ON9r25QqixVOM2ZakYDhZRecteW3aXO0SzIcm1Tv8lbtSjR2zGdaCBlrxuKzgH37j6A1a7da08ymuuw41K9bjdqJrVK+eaxy4S1yvmT3x1/zhYO5XbfzkDEZd+rYUkshykHqrSknT52nniI4PH9pclThFXl2OHlFXPXLZXw+fs7c5TT7n6VaqkxHzQHGAYGYBOBoxqSBz04nUKpkYWr7bmOqXbOiUn8k2KHk2JLTZy7SYpDypR9HlA7tm9OQQT1sDq7Pcg//ahL9+fd8R4irZeOpUrkstXu3CfE2Lq94qlI4x/bK1Zto+oxFWiBzR+jNSRc+G/ARfdi5tc3DcTzGj/uPdHhK1ECRa75pk9rUvNlblDM4u83ym7Hh4SMnadbsJdpuyN27IWZUATK7EAE4mi40ma6kCl9KqVe3CjVuVMuU+dMtnQs+lL9ixUb6V1zicGTeaXbQ/jegC/FKlYzyu8hKNEJknXn6NFxGdxb1kU/cOm7SqKa2chUUlM2iNmasdPDQCVqwcLUWc5QDmDuqcPSBsaM/o5o1yts9JH8hYfuYOm2u3X1Z24Gvj7emAzudb5Qr4bLb6rzD8N+67TRv/griVLS4RW6tpaC+XgTgaOpFFv1KIcAB30uJ7DF161ShatXecImVCT6Qv3HTLm21gc+x6X07N+5E8ErP18KB4BVBmYVXZD/939e63kiPT14+M1j+zZJUp04lqlyxjEvEaz1z9iKtX7+DlomA9pyG8dmzZ/GprtszPp7wjThOwc68zDJTrLIN/3IicTpMZ5RcOQOpdq2K4ktsVe2SmbVHAZwhc2JjMse9wj6Wiy+rfAHrqoPOwyYmE96BQFwCcDTjEsHvhiXg7Z1COJ2FqXq1N7XLQ3nzBNu85etoJc+fv0w7dh3QzjPu2nWQbt+552gRtPE4ZNDokf2JV4z1KJwOc9CQcQ7fJo3WJW3aVFSubHHNRsqVLUbBYqXTDIG9efXp5Klz2q1xdhjYuXz06Em0Wg79yccSBn7WhTh8kB6FdRsgvpCcELFTnVX4XDjHa61apZz2j9Pl6qWvbB1v3bqrxdDdsGGnFm2AkzeggICRCcDRNPLsQLYECfBKBGcjKVemKJUVDkWhgnm0zCR8pszZhW//Xrt+i44dO61lReLMSMdPnHH4ymVMDsmTe1GPbu3Ev7bEq8R6Fj5fyvmSf5g8XeRed8xZ0/j04S8mnNryzTdLUOmSRahAgVyUJXNGEQzeLb7qDn3GjuXFS1fp8JFTtEt8AdkubOSMyMqiRwpHSxVjJ33wwO5amCBL29haj88Njhz9I80Sl1SMUPiLV8kShTRbKV6sgPiCkt0wW+zM6tTp87R33xHaum0vHTh4jHDu0ghWAxksJQBH01JSqGdoAnzmMDAwi+Zwcnq6fOLmKZ/by5ghva5/MPjsGYcO4TzSvCLFjsPRo6fp3PlLDokhaMmk8C3cEcM/dngIqc1b9tDQ4d85deUqJh/eYg/OmZ04dSKHwsmTO4hy5MhCAenT6nqpiI9G3Lh5W8QdvUQnTp6jo+ILyFFxC/uCCBHlyDOtMVnE/Vy5UhkaNqRXkjFU47az9/c585bTyFGTiS8MGaXwF5GsIuMR//+Gc7jzf0/4MhEHqOdb7HqtkPPxiHsituXly9fFl46L2pdTvtTDNsOrmCggYFYCcDTNOnOQO0kC7HxmEBca+A9E5kwZKFv2TFqKvLRpUml/MFKLPxq+fj5ihc+DvMQqHwcJT+aWTAuKHhUZRc8iIyn8aQQ9fvJE5OR+SPfFrd87t+/R9Ru36erVG1q4kKtXb4o/kve090kK5OAK/AeTt0E/7tOJeLXKGYUvKIwd9yv9PWMhRUVFOUOERMfkiyKcq5ttJGvWjMTBv7OIdJtphI34+/tqdsJ1PMVKuYdIi+kmmLKj8TzquaYP5xCPiHhGD0XO9nshD+hByEO6K3S+IsLKsMNw7fpNuiHs5aZwFPhLidEK68aZuj7o3Er3le6EdOfzqCNG/UirVm9OqIrTn/MuQJo0/tr5X3ZC2U4yZw4QtpNee55K2IqPYJncy0v77wmnUOX/lnBhW+H/lkSIVWzOKx7y4KH2JTTkQahmG2wnHIaI7YS/kNy790DXxAxOhwkBlCMAR1O5KYfC0QTYYYh2Mj2Es+km/jC4JXPT/iMfKZyiSBGvkB0JXmmIFI6nmQqv2A0e2M0waRz53OHIMVMcerNexnzxl49YNiJshu0m6nmUcDSFAyGczGhnU++A6TL0idkHr2L+79Ouhsi8xOxmz1kmvpT8ojlcMeU0w2e2CXYuvbw8NIed7cZNPOMSJXSLZEdT2AofJXHm8QgzsISMrkcAjqbrzSk0UpgAr1B1EMGqOdsSr8gZqfCqMJ/b/F0Eo3fWRRcj8XCWLLx626fX+9Tm7YaGS47A4ZvGTfiN5i9YZbovd86aT4wLAkYnAEfT6DME+UDAQgJv1alM/fp20s4fWtjEKdX43NmEb6dqwcedIoCig/JFudatGlB3cSGMt3+NXDj8FzucfEMdBQRAwNwE4Giae/4gPQhoAe35nB07mmYqK1ZuFLfTp9GhwyfNJLYpZeUwPn17d9DCg5lFAb6ZP2PWYvr5l5nihr7jAtWbhQ/kBAGzEICjaZaZgpwgEIcA35r+8IPW1LRxLV1vTccZVuqvfDmCt0l//nU2nRbhfVDkEihTuog4RvEu1apZQbfb0nIlfr03jurw9/SFIrf7v8TJDlBAAATMRQCOprnmC9KCgBZqpX27ZtSqZV3TBJlOatr4/CZfBmFn4ty5y0lVx/skCHBmn04dW1GDelW1/PBJVDfF62si683UP+fRnLnLEe7HFDMGIUHgBQE4mrAEEDAJAQ5K375dU2rYoLrLOJhx0bPDuWDRGvrzr/l07PiZuK/xexIE3nyjBHXq0FLL7W329IoJqcoO5z/C2ZwpttU5LBAKCICAsQnA0TT2/EA6xQmws1BeZLZp/XYDql2zomm3yK2dRt5SX712C80SubE5GwpCwiRMkCMN1Khentq0bqjZCofWUaFwdpxFS9YKp3MZHTx4XAWVoSMImJIAHE1TThuEdnUCHES8rrjc07JFXSperKCrq5uofpx67x+xrc6OJwe1RnlBIFfOQKpfrxo1a1qbcufKoSwWjnO7RXwZmT17Ka1bv51CH4YpywKKg4ARCcDRNOKsQCYlCXBu7nJli1PjhjWpSpWyWmpEJUEkoPTtO/c0R2LBgtW0c/dBLctKAlVd9jFnLKpYoZS4AFabKpQvpWt6VTNCvHDhCq1as5mWLltP+w8cxUq4GScRMrscATiaLjelUMhMBHjbs2jR/NqZOt7+5FUqlKQJ8A319Rt20MpVm4RDccylnc7Uqf2pbJmiWviqShVKi9SHGZIGpHgNTnd6WITNWiHsY/3GHSK3/Gktw5fiWKA+CDiFABxNp2DHoCoT4MwsxYsWoOrV3hSrUiUpKCibyjjs1p1zZW/bvo82bNypBfh2hRA4OXJkpXJlilHlymU1J5Pzr6PYRoDP9548dU6zD/5ycvTYaZFPPMS2ztAKBEDAagJwNK1GhgYgYB2BgIC0lDdPsNgWL0Z8K5jzkPMqFYp8AuxAHD5yinaJrfXdew7RsWNn6Nbtu/IHktgjX95hR7JwoTxURjiXpUsVpnz5chKvdqPIJ8BfRA4eOqFdMmM7OXf+Mt2//0D+QOgRBEBAIwBHE4YAApII8A3xdOlSa04DB1MvVqyA5jwEB2WntGlTSRoF3VhDgM91njlzUQuVdPjwCbHieYROnT5vTRe61C1ZopBmH0UK56X8eXNScHA2lw1ZpQtASZ0+f/5cCwJ/6vQFkaHqhHBAj9PZs5fo2vWbwvkMJd6CRwEBELCPABxN+/ihtYIEeDUyKEc2ypQxHWUWOaM5b3SQ2Ork7c7MmQKwWmlgm+DVrPqNPyCOxeiswqvaM/4aT56ens4SAeMmQiAyMoru3rsvbOSWWO28RHzB6OrVm8L5vCWc0tsig9VFlz4TnAgavAIBmwjA0bQJGxqpSsDLy5Nm/j1BnJsrZtqUfqrOXbTeM2YuogH/+zr6V4f+ZPuZO3sS8YomivkI8Arn3zMW0sDB48wnPCQGAScRUCOyr5PgYljXI9CsSW0tBFGyZMlcTzlFNGrRvK52098Z6jZpVAtOpjPASxqTz9O2btVA+di2knCiG0UIwNFUZKKhpv0E/Hx9qHvXdvZ3hB6cSoBXFfv26uDwFWm2n57d33Oq7hjcfgJsP717tne4/dgvOXoAAecQgKPpHO4Y1YQEWrWqp13aMKHoEDkOAQ4txVEAHFlaiCxPfOkHxfwE2H74rC0KCIBA0gTgaCbNCDVAgHg1qtP7LUHCRQi4u7tRty7vOmxVys/Plzp3gP24iPkQ20+XD9s4zH5chRv0UJMAHE015x1aW0mgSeNaFBiYxcpWqG5kApUrlaUSxR2TR75Rw+paVAIj84Bs1hFg+ylVsrB1jVAbBBQkAEdTwUmHytYRSJ7ci9q1bWJdI9Q2PAEPD3fq0L657nLymb727ZrpPg4GcCwBtp/27Zo6dlCMBgImJABH04STBpEdS6BypTJUsEBuxw6K0RxCoFatirqvVFcU+clhPw6ZTocPUrtWJaSQdTh1DGg2AnA0zTZjkNfhBN4W4UxQXJMAp3ls3rSOrsq906aRrv2jc+cR8PFJSU3FsRoUEACBhAnA0UyYDd6AgHZLuHLFMiDhwgQaN6pJKVIk10VDzhZVSaxoorguAT6/nTJlCtdVEJqBgJ0E4GjaCRDNXZtA3beqkLc3/oi48iznyhmoBeHXQ8f69aoSr3qhuC4Bth/OFIYCAiAQPwE4mvFzwVMQID7s36BuNZBwcQKc5alBffnzzPZT/62qLk4P6jEBjiqAAgIgED8BOJrxc8FTEKD8+XJRwYK4BKSCKVStXJb8/X2lqpovb04qVCiP1D7RmTEJ8PEa2fZjTE0hFQhYTwCOpvXM0EIRApz9w8PDQxFt1VYzc+YM0nOQV6v6BuxHEbNi+ylTuqgi2kJNELCOABxN63ihtiIE3NzcqIpY5UJRh0CN6uWlKcv2w44mijoEqlYpp46y0BQErCAAR9MKWKiqDoGsWTJS4UJ51VEYmtKb5YqTp6enFBJZxAoXts2loDRNJ+VF7nNZ9mMapSEoCFhAAI6mBZBQRT0CxYsXwG1hxaY9p7g9HBycTYrWJUoUJI7RiaIOgeDg7NLsRx1q0FQFAnA0VZhl6Gg1gTfKlbC6DRqYmwCniixRTE7uc4S7Mbct2CI920/J4nLsx5bx0QYEjEoAjqZRZwZyOY0An68rVjSf08bHwM4jUKpkIbsHZ/spXqyA3f2gA/MRKFWysPmEhsQgoDMBOJo6A0b35iMQEJCWcgYHmk9wSGw3gcKF85G7u33/WXxhP9ntlgUdmI+ADPsxn9aQGAQSJ2Dff1ET7xtvQcCUBIKDsiEmnilnzn6hA7NnpnTp0tjVUVCObJQqlZ9dfaCxOQmw/aRPn9acwkNqENCJABxNncCiW/MSyJ8vp3mFh+R2EWAHMUdgFrv6yJ8v2K72aGxeAhy03V77Ma/2kBwE4icARzN+LniqMIHcuYMU1l5t1TkdZXCQfdvesB91bYjtJ6e4fY4CAiDwigAczVcs8AkENALBQVlBQmECuXLZdz43p6QQSQpPgalVx/luU08fhNeBABxNHaCiS/MS4IDLmTNnNK8CkNxuAtnFOTtbC6cszZQxwNbmaOcCBOyxHxdQHyqAwGsE4Gi+hgQPVCbg5+dNadL4q4xAed3tcRT9/HwobbrUyjNUGUCmTAHEW+goIAACLwjA0YQlgEAMAnwZxM/XJ8YTfFSNQDrhKNqaSpDtBxmBVLOY2PqmTZuKOHg7CgiAwAsCcDRhCSAQg4C/vx8lT+4V4wk+qkaAHUUfn5Q2qc2OJuzHJnQu08jfz5dSpkzhMvpAERCwlwAcTXsJor1LEUgtHE1se7nUlFqtjLdwMr1tdBT8xdY5ZwZCUZdAipTJsaqt7vRD83gI4L+I8UDBI3UJsJOBojaB5F5elCJFcpsg+HjDfmwC50KNvMSFQlvtx4UwQBUQeEkAjuZLFPgAAoQtLxiBSEHpbrOj4C223VHUJsCRB3B8Qm0bgPaxCcDRjM0DvylOwMvTQ3ECUJ8vDHvYaAeewslAUZuAu7sbuXu4qw0B2oNADAJwNGPAwEcQ4NUIFLUJ8BlLD7GqaUvx8LStnS1joY1xCbjjnK5xJweSOZwAHE2HI8eARiYQGRVlZPEgmwMIPH/+nKKints0UlQk7McmcC7WKErYEAoIgMALAnA0YQkgEINAeHh4jN/wUUUC7GRGRETYpHq4je1sGgyNDEkgSnxZjXwWaUjZIBQIOIMAHE1nUMeYhiXwLAJ/IAw7OQ4S7PnzKIp49sym0SLCbWtn02BoZEgC7Gjaaj+GVAhCgYCdBOBo2gkQzV2LwOMnT1xLIWhjNYFnYjXq6VPbVrYfPX5s9Xho4FoEIiKeEXZGXGtOoY19BOBo2scPrV2MQEjIQxfTCOpYS+DRoyf06JFtDuODB7Afa3m7Wn3+kvLw4SNXUwv6gIDNBOBo2owODV2RQMiDUIrEhQ5XnFqLdeJVycfC2bSlPAgNo2c2brvbMh7aGI9AmPiSYqv9GE8bSAQC9hOAo2k/Q/TgQgQeCkcB2+cuNKE2qMI28OTpUxtaEoWKFc0nNm672zQgGhmOAGzAcFMCgZxMAI6mkycAwxuLwP37DygkJNRYQkEahxK4cfO2WJW07VIY2w7bEIq6BG7euotVbXWnH5rHQwCOZjxQ8EhdAo8eP6Fbt+6oCwCa09WrN22mwNumt2/ftbk9GpqfwJUr182vBDQAAYkE4GhKhImuzE+AQ5Ncu3bL/IpAA5sJXLx0zea2HOzdHkfV5oHR0DAELl2Go2mYyYAghiAAR9MQ0wAhjETg9JkLRhIHsjiYgL3zb297B6uL4SQTwPxLBoruTE8AjqbppxAKyCZw/PhZ2V2iP5MQ4BvjZ89dskvaEyfO2dUejc1LQIb9mFd7SA4C8ROAoxk/FzxVmMDZcxcR4kjR+b99+57dW99nzsJ+FDUfcT6X7eeGqupDbxCIlwBkl+z6AAA2AElEQVQczXix4KHKBC5cvIoLQYoawOkzFyk01L6g62w/N8XNdRT1CPCXDATtV2/eoXHiBOBoJs4HbxUkwH8ojh0/o6DmUHnf/iN2Q2BH9fgJHL+wG6QJO9i3/6gJpYbIIKAvATia+vJF7yYlgD8YJp04O8Xeu89+R5NFkNWPneqguYMJYN4dDBzDmYIAHE1TTBOEdDSBHTsPEIeqQVGHAK9kHzp8UorCsB8pGE3ViUz7MZXiEBYEkiAARzMJQHitJoFDh0/QjRtyztmxwwqn1fh2xHN+/bqcGKrssMrqC/ZjfNthCWXajzk0hpQgYBkBOJqWcUItxQjw6sSevYelab1+ww4KC3ssrT909ILALYlZeDZt3i0NK5/T3LNXzjY8C8X28zDskTT50NELAjLtZ/OWPfhCCcMCgXgIwNGMBwoegQAT+G/ddikgkiVLRk+fhtPwEROl9IdOXhCY9c9SOn1aTnB9zm2+YeMOqWj/W7dNSn9sP+EREfTliElS+kMnLwjMnrOUTp06LwWHHvYjRTB0AgIGIABH0wCTABGMSWDDpp3SQpVUrlSWNmzYSd+M/9WYyppMqhWrNtEff86jYkULSJH86LHTItKA3JviGzfvopCQUCnyVapQhjZu3EVjx/0ipT/VO1m5ehNN+0Oe/XCUiqPHEKlCdbuC/vETgKMZPxc8BQHtjN32HfulkPD2TkHNm9Whb7+fRpN/miGlT1U72bhpF/XoNYxq16pEzFVGWb1mM3FWF5mFz2hu3ynXfr6b+Af9OGW6TDGV64uPSPTo9QXVqlmRfHxSStFfD/uRIhg6AQEDEICjaYBJgAjGJbBo8RppwrVsXldzjEaOnky//DZbWr8qdcTn4Lr2+Jw83N2pZYu6UlQPD4+g5Ss3SukrbieLFq2N+8jm39l+2DEaNWYK/fzrLJv7Ubnhlq17qEv3IeTmlkyq/SxbsUFlrNAdBBIlAEczUTx4qTqB/9Zvp6vXbkrBEBSUjd6qU0W7MPDFlxO11U0pHSvSyarVm+nDroO07eiGDapTtqyZpGjOq9YndAqwvm7DdroiKSVhjhxZhf1U1uxn+FeTaMJ3U6Xor0onL+xn8Av7qV+dsmfLLEV1DmWll/1IERCdgICTCcDRdPIEYHhjE+Db50uXrZMmZKf3W5Cnp6fWH5/X5AsefJEAJXECc+Ytp249h2pnZpMn96KOHVom3sCKt9y3XuGn2H6WLV9vhTSJV+30fsuX9jNuwm/EX1hkb/knLoE5386dt0KzHz4zayb7MSdtSA0CsQnA0YzNA7+BwGsE/pmzTLs1/toLGx4UK1ZArEpVetnyp19mUXdx3vD+/Qcvn+HDKwJRUVHayl2/T0bRkydPtRe8mlkgf65Xlez4dOnyNVr731Y7eki6qUz7KVo0P9UVq5rRhY9gdOsJ+4nmEfcn2w+fi+43YORL+6lfrxoVLJA7blWbfmf7WbN2i01t0QgEVCEAR1OVmYaeNhPgG6XrxBa6rNKz+3uUMuWrSyy8Ytq2fX86efKcrCFcoh9eferTbwTxyh07DFz4jGL3rm2l6Tdr9hJpkQUSEortR1aoIx6jR/d2seyHV0zZfrB9G3sGou2Hdw4iI1/ZT49u7WJXtOO32SLEFq9ao4AACCRMAI5mwmzwBgReEpgqQqHI2l7l1ZTWreq/7Js/7D9wlFq16UULFsm7fBRrAJP9wjxav9ub/p2/Mpbk77VtSnlyB8V6ZusvvIr8z9zltja3qh3bT7SzbFXDeCqz/bRp3TDWm5f2s3B1rOeq/nLgwLF47afdu00ob54gKVjYkeXVahQQAIHECbj7pw4clngVvAUBELgqLnSULVOMArNnkQKjSOF8tHjJWgp9GPayv0ePn9BycXv17t37VLJEIUqRIvnLd6p84JWnP/76lz7uP4p4WzJmCcyemSZ8MzjWal7M99Z+/vPv+VLP3yY2/tVr/28/gXLsp3ChvLRk6X8UGvrKfh6z/Yjb82w/JYoXlMYpMb2M9i7afvr2Hxmv/YwfN4i8Y+wm2CP/X9MXiDmQd37bHlnQFgSMTACOppFnB7IZhgCvZt68eYeaNqlNnKnF3sJbwGnTpqYV8YTV2S9WY9aIc4NB4pZxUI5s9g5lmvYnT52n/gNG0W9T51B4ePhrco8Z9SkVK5b/tee2PLh3L4T43GdMR82Wfixtw/Zz4+ZtaibRftIJ+4kvLBPbz1qRlQj2E3t2Ro8cQMXFGWkZhVfD2X4eiFSjKCAAAokTgKOZOB+8BYGXBC5dvk6lShaS5vzxhZZTp88TO1hxy50792nR4rV0TQT95q1Sfz/fuFVc5nfOAc/OJTuZx0SGnvhKs6Z1qHfP9vG9sunZ79PmkqNjH166dE3YT2HiMFcySn5hP6fPXIj3bG+0/Vy9dosKFMhF/v6ubT88n/0/HS2y88RvP/wFke1HxpdEnjseb6nEaAIy7AF9gIBRCSTLmqPCc6MKB7lAwGgEeEt73j+TXoaYsVc+zh7TtEW317b5YvabMWN66vbRu/T22/XJ18c75itTf+ZVvpUiNuaEb3+nI0dPJagLO2bz5/5IAenTJljHmhfXRFzUeg07063bd61pJqUub2nP++cH8vJ6EeLK3k5v3Lgt7KcrXRRObEIlQ4Z01K3Lu9T67QYuaT/finiih4+cTEh9zbGXbj+NhP3ccrz9JKgkXoCAgQlgRdPAkwPRjEeAVxg5UDifsZRRfH19KI+4nMDn7aJvxsbtNyzsEa3fsINWizAqKVJ4Ue5cOcjDwyNuNVP9znnkBw4eRxN/+DPRP9h8TnXypOGUL29OafpxZp1t2/dJ68+ajviLRdYsGalIEVn24025k7Sfx5r9rBJpNpMnT+4S9sNpSAf9v/3cvHUnwSngmJmTJ31B+fPJs5/RX0+hrducYz8JKooXIGBgAnA0DTw5EM2YBI4ePa2d1fT2TilFQD5Lxw4A//FMrNy5c484u8na/7ZpN+D5YlLMMEmJtTXCu4iICE32z7/4TouNeeHClSTFGjq4JzVsUCPJepZW2Lf/KA0V40dGOi9IPm/v8lau4+3nvmY/a9Zupefif2a1n6HDv6PxYhX8vEX204MaNaxpqXkkWY9vsw8Z9q1T7SdJIVEBBAxGAI6mwSYE4hifAF8g4XOFNWuUlyZs6VJFiC+o8EWOpApv2bGzyfE3b4uznOnSpZa2rZzU2La85xSec/9dQUOGThA5umeTJQ4mj/NBp7epT+8OtgwZbxvOad6z9xeJbjPH21DyQ7afhw8fCfupIK1nzX7EBZX9wpFOqvCRAbYfvjHNZznTpk1FAQFyjiUkNbYt7/moQ0z7scTB5HE6d2xFfft0tGXIeNto9tNH2M/Fq/G+x0MQAIH4CeCMZvxc8BQEEiXAW9d//zGOKlYolWg9a17yil/PPsOtDpnC24NvlC1ODepXowoVSouVKjk5nK2RPW7du3dDaOfug5ozzNv+7ERbU/jyz/ixA8URAXdrmiVa9+dfZxHnCLencLSAZk3qEIe2saewXn9NG0eVKpa2p5tYbTkVJdvP4iX/xXqe1C9sP+XKFqOGIv+30eyHg9GvF/ni2Z6sKbxiPOGbQVLth7MwccpPFBAAAesIwNG0jhdqg8BLAnnzBtP8OT9SqlR+L5/Z+4Hjan7UdXCS2+gJjeMnbqfzzfgqlctS2dJFKbcIbs7Okd6FnZxz5y8Tb01v3LiTtu3YT3xRxZZSo3p57Vymt/er7Em29BOzzXGRnadZq+52Z3GpV7cqfTd+ML1VvyOdOXsx5hBWf+bA4fPnTjaW/Ygzw6VKFXa6/WzfeYD4PKstpXq1N2nKD1+Kowny7IezLjVt2c1u+7FFH7QBAbMTgKNp9hmE/E4l8O47jWiMiM8ns3DGka49PrfZ2YyWxc3NjQJFgHAOj1S4UB7xLy8FB2Wn9AFpyE84FLaWR4+e0L37IcThejgc0aHDJ7Vbv+x4PX36evxLa8Z5q3Yl+nbCEKm3ozlHepu2fWjX7kPWiPJaXV6FnDNrEpUpXYQ42DtfZrK3vNOmEX09Sr79dOsxlPjClT2F7Se7WB1n+ylSOK9u9nP4yClhQyc0x12G/UwQXwTsse+4zGTZT9x+8TsIqEIAjqYqMw09dSHAcfl+mDiMGkm8sMKChopA0H1Fnu8VqzZJlZsvD6VNk4o4ZFLmzBmIg37zGU9+xluoXl5e5OnlQZHPIumpONPI59JCQh5oZ0E54wyvMl0XK5V3bt+LldVIhpBNGteisaM/lX7BafTXP9GkH/+yW8S6b1WhX6aM0PrhM7oNGn+gxUG1p2O2n0nfD6XGEi+ssDy8Mq7ZTzwJAeyRl+0nTWp/ypQpwCr7uSNsh8+D8io3R27QxX4a1aSxYz6Tbj9jxv6sRUewhxvagoDKBOBoqjz70F0KAb5MMWfmRMonMYQKC8arO8OGf2/3eUApSurcSccOLWnIwG7S4pNGi8spPXl1+JlwnO0pHPdygdjmLlr0VWaif+YuE6kyR9rTrdaW7eefGd8TB2CXWdh++Ewhr766eunwfgv6fFB36fbDmbu6dB9it/24On/oBwKJEcCt88To4B0IWEDg8eOn4rb4US0MD68Kyiq8Vcs3231EkPbtO/YlGGdT1njO6IfjZH4+qAd9LG4Hu7vLu/jDunDGJT7vyquP9pZWLepRu7ZNYnWTR5x/5ZBUtp4ljO6M7YfPtvKquGz74fOuvr7eWtzQhOK0Rsthxp/R9tOvbyfd7OehiGOLAgIgYDsBOJq2s0NLEHhJ4IbIg35ZpKisI84Y8tk2maW0uJxRongh2rPvCHGOZVcpHHiet41lxjmMZsO3lD/oMtCiWIvRbRL6mVpsFX//7eevXdphxzhrlgy0YOEaLa5pQu0teX5TR/vhtJdsP3v3u579TPzuc2ostsxlF7afD7sO0i64ye4b/YGAagTgaKo249BXNwInTp7VzjRWqlhG+hg5RFD3+uLGM8dA5BvUZi+8Qvi9cBJkZmyJZsJbxj1EvMzt4ua7jPJx744JxkwNypGNTomV0xMnz9k9FNsPy165kn72c1sE/T/mAvbTsnldYiczfz65xw14EnkOeop4mdu2y7Efuw0DHYCAyQnA0TT5BEJ8YxHgm82pRbijEiInuuzCW6D1xIWUXLkCibPLmHF1M1fOQBo9oj/17P4e+UjKrBSTc1RUFA36fDwtWrwm5mObP/ON69EiqoCnp0eCfRQqmIf+XbCK+HayvWX3nkOUyt+PSupkP3yhie3n2HHz2s+or/pTrx762c/goeNp4SI59mOvPaA9CLgCATiarjCL0MFQBDZt2S1u5WbQwsHoIRivAvJ2obvYoj8u4vuFh9sXUkgPGeP2ydvPH3Zurd0qj3mhJm49e3//csQPNO3PefZ2o7XnM7Lfjh8icoMHJtof68aO6AYRP1RG2bR5l3arm0MK6VFi2k/0Kqoe48jsk2PVfvRBG81+isW4kCVzDO7rq5E/0NQ/5NiPbNnQHwiYlQAcTbPOHOQ2LIGoqOe0bv0O4hzmsm8SRyvtLcLMcFaZt+pUoggOln72EoWLzEJGKxxAvs3b9bWwM5y5SM/c7GPH/UI/TpkuDUHbd5pQR3Gb2ZJSpHA+bav+ypUbllRPtM7z589FNhzH2A+fKeYb+WeNaj8i3mubtxs4xH6+Gf8r/TD570TnBi9BAASsJ4DwRtYzQwsQsIgA3yDmYO4tmr9lUX17Kp06fZ5mzlpCC8WWsa0ZeewZP25bjtHZRKy6thZOAm+X611kxcqMlpNlXjBvMqUR8UUtLUeOnqIWrXpIiy/K9jN65CfE5xH1LqfPXKAZMxfToiVr7b5FL0NWtp/GDWtQm9YNHWI/iJUpY9bQBwjETwCOZvxc8BQEpBDg7dcvv+hL7d6NHRpHSufxdMKXhVav3qw5DHv2HqHHj5/EU0ufR5zyr3SpIlqYp9q1KmrB4PUZ6VWvHLLnyxGT6Nff/3n10M5PnMf+r2nf2JSHXHY+bEfbD18WWiWSBLDDqYL98JlePm7B84YCAiCgDwE4mvpwRa8g8JIAhzviOH+9e7Z/+cwRH3iVivOObxCxHg8ePK7dWJc9boYM6YjPzFWpXE5zzByxehmtA6fCHDjkG5o7b0X0Iyk/+aLSp598aFNfvA3NYZVWr9liU/v4GrH9cJzRPr3ej++1bs/YfjYJ2+FUlgfYfm7dlT5WtP1UrlRWu23vaPsZNGQczZm3XLpe6BAEQOAVATiar1jgEwjoSoBXNYd93ktqUG5LBeYUgCdFCB52GHiL99y5yyKV5C168CCU2GFLqvBqZapU/pQxQ3pxazk78U3rokXyU948wcSZbRxdOO5k74+/pE2bd0sduvybJbXVTHsCp1+7dpOatuhGl69clypb23ca0xdDezvdfjjiAZ/ptMd+ChbIo31ByZMnyCEr33Engu2nT7+vtID7cd/hdxAAAbkE4GjK5YneQCBRArzyN2bUJ5Qta6ZE6+n9ki+chIaG0b17IXRX/HsgcquHPgjTbrBHiu1EvtHOzpavn48It+Mr8lun0s4r+ovPzi57ReD6/gNGaZl/ZMrC+bvnzZ5EHLPU3sIZg97vNECLq2pvXzHbVxErf2NGDzCU/dy7H0IhDyyzHz9hT5zf3ZmFszD1Y/uREPvUmXpgbBAwCwE4mmaZKcjpMgTYkRk7+lPi1TMU6wjMnrNU5H+fKJzkh9Y1TKI25zL//ZfRVLVKuSRqWv76p19maedHLW9hWc3AwCya/VQoX8qyBqj1koBe9vNyAHwAARB4jQDCG72GBA9AQF8CISGhtHjpf1qqSg7MLTtlpb7SO6d3XnkdOvx7Gjf+N13ihg4R+dabNa0jVblSJQtpN7gPHzkptV+2nyVL12krgzwG7CdpvHrbT9ISoAYIqEsAjqa6cw/NnUiAL41s3rKH9u0/pp1VS5s2tROlMfbQW7ftpW49h4nYpNt1EbRD++bU/+PO0vvmLeKKFUqLOT5CFy9dk9o/28+WrS/sp2iRfE455yhVIR0727Z9n7CfobrZj46io2sQcAkCcDRdYhqhhFkJXLhwRcS+XEvJvbzE5Zp8WJ2KMZGcYvPrb36hIcO+pZs3b8d4I+8jp2QcM2oAubu7y+s0Rk+cMYhvVPOZzdu378V4I+cj288iYT+89c+ZhPTSQ460ju0l2n4+F/ZjhNiyjtUeo4GAcQjgjKZx5gKSKE6Az2x+0u8DKlO6iOIkiJYuW0fjJvwm/cJPTLBvlCtOU38dTZy9SO9y5uxFavteP7p0We7KZky533yjhGY/ZcsUjflYyc+OsB8lwUJpELCBABxNG6ChCQjoRcDT05NataxL3bu2o8DsmfUaxrD9HjhwjCZ8P5XWrN2qq4zFihWgab+OoYCAtLqOE7Pzg4dOaDfRObSOXoXtp2WLutSja1viS0OqFUfZj2pcoS8I2EMAjqY99NAWBHQikE6c2XynTSNq364pcdgdVy/Hj5/RsvssWLSGnjx5qqu6BQvkpmm/f01ZRJpDR5fdew5R5w8HEmfg0bOoZj8nTpzVsvs4wn70nDf0DQKuSACOpivOKnRyGQKcOeUdke+5Vcv6LrnCeejwSfp7xgJasHA1hYU91n3eChfKS7/+PNKpcSh37jpIH3UdrEumprgAX9pPi3ouucLJN/r/nr6Q5i9c5RD7icsXv4MACCRNAI5m0oxQAwScTiB1an9qWL86tXm7ARUVKR/NXMLDI2jbjn00fcYiWvvfVnr6NNwh6pQoXpB+mvyVU1Yy4yq4Z+9h6tL9c+IsQo4obD8N6lXTvrTAfhxBHGOAAAhEE4CjGU0CP0HABAQ8PDyIL3s0b1aHqld906FnDO3Fwzekly5fTwvF9jinwXRkqVihFE36fhilT5fGkcMmOhancvyo22AtHWiiFSW+jLYfjhlao5r57GfZig2a/ciOTSoRMboCARCIQwCOZhwg+BUEzEIgIH1aqlC+JL1VpwqVK1vMkE4nx4/cJEL7rFi1kXbvPkShD8McjrdRgxpa2kY/Xx+Hj53UgOx89+j9hYi1eTSpqtLfs9PN2YU4xJPR7Wfl6k20Sxw5cIb9SAePDkFAMQJwNBWbcKjrmgTYaeCb1JUqlhYrnsUoODgbOcOxuns3hE6dPkdbt+3TAoofOXLKqc7Bh51b08DPupKHhz5xMmVYE2et6T9gNLEz5awSy35KF6XgnNlhP86aDIwLAi5GAI6mi00o1AEBd3c3cQ4xI/Htaj6Plz9/TgoOyk6ZM6WXFjMyKiqKOBXilas3iGNEHj16mg4cPEYnTp6jW7fuOn0SUqZMQZ8P7kHt3m3idFksESAiIoJGf/0TcX50Z5fE7MdXrApzxiN7S3z2c/DQcc1+9Az/ZK/caA8CIGA9ATia1jNDCxAwHQHOHMNb7QEB6Shz5gDKmiUjZRCfU6f2ozRpUpG3T0ryEjEYOZMN586OjIwidn7434MHYXTvfghxphXOsMLO5fXrt+nmrTt0R4Tp4bpGKjlyZKWvRbYf3hY2W5n1z1Ia/tVEwfyhoUTn+JwZRMzR+OyHLxr5+HpbbD9XxQWoa9duGdZ+DAUewoCACxCAo+kCkwgVQAAEXhCoVbMCjfiynyFults6Jxx0/NOBYwkXXmwliHYgAAJGIoBc50aaDcgCAiBgEwHeKv+kX2f6YmgfSpXKz6Y+jNKIA/Q3bFBdW9XkbEIoIAACIGBmAnA0zTx7kB0EQEC7BDXx26HUpHEtbdvfFZCkSJGcataoQLlz56ADB47Tg1BjbaW7AmPoAAIg4BgC2Dp3DGeMAgIgIJkAr2J27tiKenRrRz7ijKmrFj7TOGbsTzTv35WuqiL0AgEQcGECcDRdeHKhGgi4KoHyb5YUYYu6UPFiBV1Vxdf0WrFqE30tHM6Tp86/9g4PQAAEQMCoBOBoGnVmIBcIgMBrBAKzZ6ae3d+jli3qitiYHq+9d/UHHFLqt6lztH/8GQUEQAAEjE4AjqbRZwjygQAIiDBM/lpMzI4dWmhhmlRHcvrMBZo8ZQbNX7iKOHc8CgiAAAgYlQAcTaPODOQCARDQstM0a1pbnMV8W8t2BCSxCezdd4Sm/DyTVomsQs+eRcZ+id9AAARAwAAE4GgaYBIgAgiAQGwCHES+ccMa9H775pQ7V47YL/HbawR2iTzyv0+bIxzOzfT0afhr7/EABEAABJxFAI6ms8hjXBAAgdcIBAZmoWZNalOrlvWJz2OiWEeAg7xPn7GIli1fT3fu3reuMWqDAAiAgA4E4GjqABVdggAIWE6A0xuWLVOUWjR/i2rXrGj6gOuWa65fTQ6JtGjxWlqwcDUyDOmHGT2DAAhYQACOpgWQUAUEQEA+gbx5gqimSBnZqEENKlwor/wB0KOWq37nroO0eMl/tG79di1PPbCAAAiAgCMJwNF0JG2MBQIKE3B3d6M8eYKpcsUyIutNeSpZohBxBhwUxxC4f/8B7dh1gNas2UJbtu2lixevOmZgjAICIKA0ATiaSk8/lAcBfQlkzJieChXMQxUrlKI3ypWg/PlykpeXp76DovckCYQ+DKMjR07Rlq17aOu2fSII/Dm6dy8kyXaoAAIgAALWEoCjaS0x1AcBEIiXgJ+fL2XJkoEKCGeyaNH8VEz8yytWMPkGOYqxCdy8eYeOHT9N+0Ve9UOHjmvZh27cvE1hYY+NLTikAwEQMDwBOJqGnyIICALGJMBpIHn7OygoGwWLf9nFLfGA9GmIL/egmJvAkydP6caN23RBbK+fv3CZzp+/Qps27xLO6BlzKwbpQQAEHE4AjqbDkWNAEDA/AW/vFLRuzXTKmiWj+ZWBBhYR4MtE7d7vb1FdVAIBEACBaAJu0R/wEwRAAAQsJZA/Xy7KlDHA0uqo5wIEihTJR2nT4hiEC0wlVAABhxKAo+lQ3BgMBFyDQJnSRYhvkaOoQyB9ujTaxS51NIamIAACMgjgL4UMiugDBBQjUKZMMcU0hrpMoFTJwgABAiAAAlYRgKNpFS5UBgEQ4POZBfPnAggFCfDlLxQQAAEQsIYAHE1raKEuCIAAZcuaiTJnxvlMFU0hd64cxF80UEAABEDAUgJwNC0lhXogAAIaAc7ugxBGahoDf8HImiWTmspDaxAAAZsIwNG0CRsagYC6BDhHOYqaBPgLRlBQVjWVh9YgAAI2EYCjaRM2NAIBdQnkEtunKOoSyJUzUF3loTkIgIDVBOBoWo0MDUBAXQLJkiWj7NmwdaquBZCWCUpl/aE7CICAdQTgaFrHC7VBQGkCfBEkICCd0gxUVx7ZoFS3AOgPAtYRgKNpHS/UBgGlCfj7+1HqVH5KM1Bd+YCAtOTmhj8dqtsB9AcBSwngvxaWkkI9EAAB8vf3RXgbxe2Av2x4p0SII8XNAOqDgMUE4GhajAoVQQAEeDXTw8MDIBQm4O/nQynhaCpsAVAdBKwjAEfTOl6oDQJKE/D19VFafyhP5OXlJRzN5EABAiAAAhYRgKNpESZUAgEQYAK+Pt4AoTgBT093SumdUnEKUB8EQMBSAnA0LSWFeiAAAmI1yxMUFCfg5uZOyWEHilsB1AcBywnA0bScFWqCgPIEPDxxPlN1I3BzSyZunburjgH6gwAIWEgAjqaFoFANBECAhIORDBgUJ8BB+2EHihsB1AcBKwjA0bQCFqqCgOoEnkVEqo5Aef2joqLoWSTsQHlDAAAQsJAAHE0LQaEaCIAAUXhEBDAoTkBzNCOeKU4B6oMACFhKAI6mpaRQDwRAgMLD4WiqbgZRUc8pAo6m6mYA/UHAYgJwNC1GhYogAAIPQ8MAQXECvKodFvZIcQpQHwRAwFICcDQtJYV6IAACdP9BKD1//hwkFCbwKOwxPX7yVGECUB0EQMAaAnA0raGFuiCgOAFe0cT2udpGECYczSdwNNU2AmgPAlYQgKNpBSxUBQHVCYSEhIpt08eqY1Ba/3v3Q+BoKm0BUB4ErCMAR9M6XqgNAkoTCHnwkO7cvac0A9WVv3btJo5PqG4E0B8ErCAAR9MKWKgKAqoTiBAXQW7cuKM6BqX1v3zlhtL6Q3kQAAHrCMDRtI4XaoOA8gQuXbqqPAOVAVy4cEVl9aE7CICAlQTgaFoJDNVBQHUCx0+eVR2B0vqfOn1eaf2hPAiAgHUE4Ghaxwu1QUB5AqdOnVeegaoAQh+G0cWLWNFWdf6hNwjYQgCOpi3U0AYEFCZw7txl3DxXdP6vXb1JN2/dVVR7qA0CIGALATiatlBDGxBQmMC16zfpwkWc01PRBA4fOSnSTyINqYpzD51BwFYCcDRtJYd2IKAogWfPIunAweOKaq+22nv2HlYbALQHARCwmgAcTauRoQEIgMCePYcAQTECkZFRtO/AMcW0hrogAAL2EoCjaS9BtAcBBQns2n1ISnYYzpseFRWlIEHzqcyXgHARzHzzBolBwNkE4Gg6ewYwPgiYkMD5C5fp5MlzUiRfvXYLcWpLFHkE2HnnDD4yy45dB+jx4ycyu0RfIAACChCAo6nAJENFEJBNgLdRN2/dY3e3yZIlI/7f5198i5VNu2m+6uCPP/+li5euvXog4dPGjTsl9IIuQAAEVCMAR1O1GYe+ICCJwBqxEilj27typTK0a9dB+nLED5IkU7ubufNW0Jx/V1DxYgWkgbh7N4S2bd8nrT90BAIgoA4BOJrqzDU0BQGpBPjm+ekzF+3uM0WK5NSyRT365bfZNG7Cb3b3p3IHy1dsoP6fjqJGDWpQ8uRe0lBs3baXbt1G/ExpQNERCChEAI6mQpMNVUFAJoGnT8NpzZotUrps3uwt8vXxpgnfTaVvv58mpU/VOlmxahP16vsl+fr6UNPGtaSqv2z5eqn9oTMQAAF1CMDRVGeuoSkISCewcPEaKQG8A7Nnpvr1qmnyfTP+Vxo5ejLxjXQUywjM+3cl9ez9hXZZp2mT2pQxY3rLGlpQ66q4VLRhE85nWoAKVUAABOIhAEczHih4BAIgYBmBo8dOE4c6klE6dmjxcrv3xynT6bNBY6WEUJIhm5H7+H3qHOo3YKTmZPr4pKT332smVVxezURUAKlI0RkIKEUAjqZS0w1lQUAuAV51/GfuMimdFiqY5+WqJnc4fcYi+qDLILqF3Nrx8uVUkF98OVHc2P+OOFsTl2ZN6lCunIHx1rflIY8xT1wsQgEBEAABWwnA0bSVHNqBAAhoBFau2kwczFtG6dGtHfGqXHRZt347tWnXlw4gI000Eu3nzZt36MOug7ULVNEvUqXyo64fvRP9q5SfmzbvpsNHTknpC52AAAioSQCOpprzDq1BQBqB0NCHNHP2Ein95c0TRO3ebRKrr+PHz1Drtn21Fc5YLxT9ZfOWPdTi7R60Os5FrE4dWlJgYBZpVHi1euof83BWVhpRdAQCahKAo6nmvENrEJBKgLfP79y9L6XPbl3avuYwsTP76cCvqW+/EXTjxm0p45itE77l/93EP6h9x0/o7LlLscTPkzuIPujUKtYze3/ZL1aReUUTBQRAAATsIeDunzpwmD0doC0IgAAIhIU9Ij8RVueNcsXthpEyZQrKmCE9LY0npA5fPlqxaiNlEreq8+YJtnsss3Swb/9R6v3xl9p52MjIF+cxo2V3d3ej8d8MpPz5ckU/kvJzqDj7eeLkWSl9oRMQAAF1CcDRVHfuoTkISCVw+swFata0Dvl4vzpjaesAefMG04WLV+jYsTOvdcE3oJcsXUdnRLD4fPmCKW3a1K/VcZUHnJGHVzEHDRlH589fiVctPmrQWfJq5p69h2nUmClSMj/FKzQeggAIKEMAjqYyUw1FQUBfAmFhj8nL05MqViglZaAypYvSqtWb6d79B/H2x6ttCxatId5Szpc3J/FKqKuU8PAI+nfBKurT7yuNQUTEs3hVy58/F30/YQhxdiVZhc9m/m/wOOHIX5DVJfoBARBQmECyrDkqICqywgYA1UFAJgE/P19asvBnaSF2duzcT23b99diRCYmJwd87yguw7QSqSz9/X0Tq2rod8+ePaMVKzfRT7/MJN4uT6zwUYVZ07+lYhJzmvN47Nx3+vB/uASUGHy8AwEQsJgAVjQtRoWKIAACSREIDw+ne2K7t369qklVteh9tqyZiMP2/LduW6L1Qx48pPUbdtCyFes1p5QdT07FaJYS+jCMFi/+jwZ9Pl4LWXT9+q1ERU+WLBmNGtmfalQvn2g9a18+fvxEyzCEvObWkkN9EACBhAjA0UyIDJ6DAAjYROD0mfNUrGh+Cg7OblP7uI2KixW7J0+fWpSB6L7YZt+8ZTfNX7CaLl26KlY3/cTFoQByc0sWt1tD/M7nWv+avpCGDJ0gQkQtpmsi3aMl5eM+HalzR7m3zHncn3+dRfMXrrZEBNQBARAAAYsIYOvcIkyoBAIgYA2B3Lly0KL5P0nbxo6MjKL+A0bRnHnLrRFDOJhuVKJ4QapXtypVrVyW+JIRrwY6s1y5eoO2bN1DS5etp23b99KjR0+sEqd9u6b01fCPpetx8uQ5aty8K3EoKRQQAAEQkEUAjqYskugHBEAgFoEuH7ahwQO7x3pmzy+8rduj1xe0cvUmm7pJntyLihTOR5UqltbCMBUskJvSpEllU1/WNOJLUqdOn9NWZDku5e49h+iB2Oq3pTRpVJMmjBtEnuLSlczCKSzbd/iENmzaKbNb9AUCIAACBEcTRgACIKALAXaGpv0+hqpUKiutf3baevUZbrOzGVOQDBnSidvqwVS4UF4qXDivdoEpo4jPmVqcCbXFkYuKiiIOvXTr9j0RiuiySN14ko4ePUVHRWajy5ev2x0qqGXzujR65CfEDrPswlvmw7+aJLtb9AcCIAACcDRhAyAAAvoRCArKRgvmTab06dJIG4RXNj8dOJb+nb9SWp/cEQc+5zOdAQFpRcD4dJROyMwxOtOk9tfCByX38iRP8Y9X/zikEl98YseSY11yVqRbt+7QDZGDnM+JcngimeW9tk1p+LA+5OHhLrNbrS/OI9/qnV7ETjwKCIAACMgmgBVN2UTRHwiAQCwCjRrUoEnfD9XOS8Z6Yccv7OyN/noKTfl5ph29GL8pnyft3bM98eUfPm8qu7Cj3KpNLzoiVl5RQAAEQEAPArh1rgdV9AkCIPCSwAlxySRlihRUpkzRl8/s/cBOV2WxJc+pKvlCTUIBze0dx5ntOR7omJEDtKw/elxg4sDsn3w2hjZu2uVMNTE2CICAixOAo+niEwz1QMAIBHbsOqBdxJEV8ihap6JF8omLPSXo4MHjdFucjXSVUlSEh5oyaThVq/aGbirxajCfzUQBARAAAT0JwNHUky76BgEQ0AhweCK+cV2pUhnKEJBOKpWsWTJSw/rV6eHDR9oFHF6pM2vhM5gd329J48f+jwIDs+imBueKHzRkvN0XlHQTEB2DAAi4DAGc0XSZqYQiIGB8Ahxfc8bfEyhL5gy6CLv2v63i7OZPdEzc9DZb4VXMzz75SBwJKKOr6Lt2H6L3RCgjxMvUFTM6BwEQ+H8CcDRhCiAAAg4lUKpkYZr66xhxo1ufGJaczvGPP/+l336fI0IN3XWobrYMlilTAH3Q6W1q924T8vZOYUsXFrdhB5ydTEszEFncMSqCAAiAQAIE4GgmAAaPQQAE9CNQoXwp+mXKCGmZg+KT9PKV6zTtj3k0Z+5yLfxQfHWc+YzDKLVu1YA40w87m3qXM2cvak7mhQtX9B4K/YMACIDASwJwNF+iwAcQAAFHEqhapRz9OPELXZ1N1ocdzn/mLKN/F6zSAqk7Usf4xuLjAy2av0XNm9ahzDodIYg7LjuZnT74H3FudRQQAAEQcCQBOJqOpI2xQAAEYhHglc3J4na1XtvoMQfjM4nrN+ykhYvX0PYd+7XA6jHf6/mZ9Sv/Zklq3LCmFpbJxyelnsPF6vu42C7v3GWQIZzsWILhFxAAASUIwNFUYpqhJAgYl0DpUkXoh4nDiG+PO6pcuXqDtm3bR+s37qC9+47QFbHqyTfjZRW+PZ4tW2YqVbIQVavyhpZb3RHb43HlZ926dv+cWF8UEAABEHAGATiazqCOMUEABGIR4O1kzh7EeccdXR6GPaKzZy/REZGbnDPk8Pby1as36Z5IJckhkyIiEk4n6SVSUvr4eFPaNKkoa9aMlDt3EBUskFvokYeCg7KLd45buYzLbcWqTdR/wCiHrtzGlQG/gwAIgAAcTdgACICAIQgEpE9LY8d8RjVrlHe6PE+ePBXhf8L+39kM0xxOzl/+LDKSPNzdiR1MPz8fzclMk8af/P18KXlyL6fLHS3A71Pn0FejfpSecz26f/wEARAAAUsJwNG0lBTqgQAI6E7A09OTPvm4M3Xt8g7pkXZRdwWcPACvzg7/ahLNmLnIyZJgeBAAARB4QQCZgWAJIAAChiEQFSUyCG3ZrW1llxW50Z259WwYKBYKwpd+uvUcRivFljkKCIAACBiFgJtRBIEcIAACIBBNgG+GN2/VXdwS3xH9CD8TITB9xiJq2aYX7d5zKJFaeAUCIAACjieArXPHM8eIIAACFhLw8PCgzh1bUs/u71GqVH4WtlKnGgdfHz32J1q85D91lIamIAACpiIAR9NU0wVhQUBNAnnzBtPAT7sa4qKQEWbg2bNImjl7MY3/9ne6dcv4aTaNwAwygAAIOIcAHE3ncMeoIAACVhJwc3OjRg2qU+9e71MeEUZI1bJt+z6a8N1U2rptr6oIoDcIgICJCMDRNNFkQVQQAAHSUla2b9eM3n+vGWXMmF4ZJCdPnqMpP8/UUmk+e/ZMGb2hKAiAgLkJwNE09/xBehBQlgA7me3ebULvtmlEAQFpXZYD5ymfOm0uzZ23gjh8EQoIgAAImIkAHE0zzRZkBQEQeI0Ap3Zs3rQOvd2qPuUMzv7ae7M+2H/gKP09fSEtXb5BBI9/aFY1IDcIgIDiBOBoKm4AUB8EXIWAn8jOU7tWBWomnM43y5XQsveYTTd2KNeJkE5z5i6nTZt3E7bIzTaDkBcEQCAuATiacYngdxAAAdMTKFQwDzWoX41qVC9P+fPlJL5IZNTCqS337T9Kq1ZvIs5PziGLUEAABEDAVQjA0XSVmYQeIAACrxHglJbFiuan6tXeoPJvlqSCBfKQt3eK1+o5+sG9eyF08PAJ2ixWLXkFk7P6oIAACICAKxKAo+mKswqdQAAEXiPAudODgrJSieKFqGSJQlS8WH4KDsqueyD458+f05279+nMmQu0d99R2rP3MO0/cIyuX7/1mox4AAIgAAKuRgCOpqvNKPQBARCwiAA7nnxzPUdgVhGXMwflE0Hhs2XLTHy5KCB9Gi3PesqUKYizEyVVePv78eMnFPowTAugzk7kebEFziGJTp2+QJcvX6Pbd+4l1Q3egwAIgIDLEYCj6XJTCoVAAATsIeDu7iacTG/y8/UhH19v8heXjHy8U5KnlwfxVjy/58w8ERHPKDw8XNwIf0RhIuwQO5kPQ8U/hCCyBz/aggAIuBiBpL+qu5jCUAcEQAAEEiMQGRlFDx481P4lVg/vQAAEQAAEkiZg3KuYScuOGiAAAiAAAiAAAiAAAgYmAEfTwJMD0UAABEAABEAABEDAzATgaJp59iA7CIAACIAACIAACBiYABxNA08ORAMBEAABEAABEAABMxOAo2nm2YPsIAACIAACIAACIGBgAnA0DTw5EA0EQAAEQAAEQAAEzEwAjqaZZw+ygwAIgAAIgAAIgICBCcDRNPDkQDQQAAEQAAEQAAEQMDMBOJpmnj3IDgIgAAIgAAIgAAIGJgBH08CTA9FAAARAAARAAARAwMwE4GiaefYgOwiAAAiAAAiAAAgYmAAcTQNPDkQDARAAARAAARAAATMTgKNp5tmD7CAAAiAAAiAAAiBgYAJwNA08ORANBEAABEAABEAABMxMAI6mmWcPsoMACIAACIAACICAgQnA0TTw5EA0EAABEAABEAABEDAzATiaZp49yA4CIAACIAACIAACBiYAR9PAkwPRQAAEQAAEQAAEQMDMBOBomnn2IDsIgAAIgAAIgAAIGJgAHE0DTw5EAwEQAAEQAAEQAAEzE4CjaebZg+wgAAIgAAIgAAIgYGACcDQNPDkQDQRAAARAAARAAATMTACOpplnD7KDAAiAAAiAAAiAgIEJwNE08ORANBAAARAAARAAARAwMwE4mmaePcgOAiAAAiAAAiAAAgYmAEfTwJMD0UAABEAABEAABEDAzATgaJp59iA7CIAACIAACIAACBiYABxNA08ORAMBEAABEAABEAABMxOAo2nm2YPsIAACIAACIAACIGBgAnA0DTw5EA0EQAAEQAAEQAAEzEwAjqaZZw+ygwAIgAAIgAAIgICBCcDRNPDkQDQQAAEQAAEQAAEQMDMBOJpmnj3IDgIgAAIgAAIgAAIGJgBH08CTA9FAAARAAARAAARAwMwE4GiaefYgOwiAAAiAAAiAAAgYmAAcTQNPDkQDARAAARAAARAAATMTgKNp5tmD7CAAAiAAAiAAAiBgYAJwNA08ORANBEAABEAABEAABMxMAI6mmWcPsoMACIAACIAACICAgQnA0TTw5EA0EAABEAABEAABEDAzATiaZp49yA4CIAACIAACIAACBiYAR9PAkwPRQAAEQAAEQAAEQMDMBOBomnn2IDsIgAAIgAAIgAAIGJgAHE0DTw5EAwEQAAEQAAEQAAEzE4CjaebZg+wgAAIgAAIgAAIgYGACcDQNPDkQDQRAAARAAARAAATMTACOpplnD7KDAAiAAAiAAAiAgIEJwNE08ORANBAAARAAARAAARAwMwE4mmaePcgOAiAAAiAAAiAAAgYmAEfTwJMD0UAABEAABEAABEDAzATgaJp59iA7CIAACIAACIAACBiYABxNA08ORAMBEAABEAABEAABMxOAo2nm2YPsIAACIAACIAACIGBgAnA0DTw5EA0EQAAEQAAEQAAEzEwAjqaZZw+ygwAIgAAIgAAIgICBCcDRNPDkQDQQAAEQAAEQAAEQMDMBOJpmnj3IDgIgAAIgAAIgAAIGJgBH08CTA9FAAARAAARAAARAwMwE4GiaefYgOwiAAAiAAAiAAAgYmAAcTQNPDkQDARAAARAAARAAATMTgKNp5tmD7CAAAiAAAiAAAiBgYAJwNA08ORANBEAABEAABEAABMxMAI6mmWcPsoMACIAACIAACICAgQnA0TTw5EA0EAABEAABEAABEDAzATiaZp49yA4CIAACIAACIAACBiYAR9PAkwPRQAAEQAAEQAAEQMDMBOBomnn2IDsIgAAIgAAIgAAIGJgAHE0DTw5EAwEQAAEQAAEQAAEzE4CjaebZg+wgAAIgAAIgAAIgYGACcDQNPDkQDQRAAARAAARAAATMTACOpplnD7KDAAiAAAiAAAiAgIEJwNE08ORANBAAARAAARAAARAwMwE4mmaePcgOAiAAAiAAAiAAAgYmAEfTwJMD0UAABEAABEAABEDAzAT+D8KK96nhv3DzAAAAAElFTkSuQmCC;fontStyle=1;labelPosition=center;align=center;" vertex="1" parent="1">
          <mxGeometry x="670" y="40" width="80" height="80" as="geometry" />
        </mxCell>
        <mxCell id="lNjX-8t4JI7WddjIo-AH-5" style="edgeStyle=orthogonalEdgeStyle;rounded=1;orthogonalLoop=1;jettySize=auto;html=1;entryX=0.5;entryY=1;entryDx=0;entryDy=0;strokeWidth=2;strokeColor=#10739E;" edge="1" parent="1" source="aQsGfXvwJRCkVv1AMBmh-60" target="lNjX-8t4JI7WddjIo-AH-3">
          <mxGeometry relative="1" as="geometry" />
        </mxCell>
        <mxCell id="lNjX-8t4JI7WddjIo-AH-6" value="WVGOPCMON01" style="aspect=fixed;perimeter=ellipsePerimeter;html=1;align=center;shadow=0;dashed=0;spacingTop=3;image;image=img/lib/active_directory/generic_server.svg;fontStyle=1;labelPosition=center;verticalLabelPosition=top;verticalAlign=bottom;" vertex="1" parent="1">
          <mxGeometry x="475.2" y="40" width="44.8" height="80" as="geometry" />
        </mxCell>
        <mxCell id="lNjX-8t4JI7WddjIo-AH-7" style="edgeStyle=orthogonalEdgeStyle;rounded=1;orthogonalLoop=1;jettySize=auto;html=1;entryX=1;entryY=0.5;entryDx=0;entryDy=0;strokeWidth=2;strokeColor=#10739E;" edge="1" parent="1" source="aQsGfXvwJRCkVv1AMBmh-44" target="lNjX-8t4JI7WddjIo-AH-6">
          <mxGeometry relative="1" as="geometry" />
        </mxCell>
        <mxCell id="lNjX-8t4JI7WddjIo-AH-8" value="STP Umgebung" style="rounded=1;whiteSpace=wrap;html=1;fontStyle=1;labelPosition=center;verticalLabelPosition=top;align=left;verticalAlign=bottom;" vertex="1" parent="1">
          <mxGeometry x="80" y="790" width="680" height="290" as="geometry" />
        </mxCell>
      </root>
    </mxGraphModel>
  </diagram>
</mxfile>
